G04 #@! TF.GenerationSoftware,KiCad,Pcbnew,(2017-10-17 revision 537804b)-master*
G04 #@! TF.CreationDate,2017-12-28T11:37:30+01:00*
G04 #@! TF.ProjectId,MonoStable555,4D6F6E6F537461626C653535352E6B69,rev?*
G04 #@! TF.SameCoordinates,Original*
G04 #@! TF.FileFunction,Copper,L1,Top,Signal*
G04 #@! TF.FilePolarity,Positive*
%FSLAX46Y46*%
G04 Gerber Fmt 4.6, Leading zero omitted, Abs format (unit mm)*
G04 Created by KiCad (PCBNEW (2017-10-17 revision 537804b)-master) date 2017 December 28, Thursday 11:37:30*
%MOMM*%
%LPD*%
G01*
G04 APERTURE LIST*
%ADD10C,1.400000*%
%ADD11R,1.400000X1.400000*%
%ADD12C,2.700020*%
%ADD13C,1.600000*%
%ADD14R,1.600000X1.600000*%
%ADD15C,1.800000*%
%ADD16R,1.800000X1.800000*%
%ADD17O,1.700000X1.700000*%
%ADD18R,1.700000X1.700000*%
%ADD19O,1.600000X1.600000*%
%ADD20C,2.340000*%
%ADD21O,2.400000X1.600000*%
%ADD22R,2.400000X1.600000*%
%ADD23O,1.800000X1.800000*%
%ADD24C,0.300000*%
%ADD25C,0.254000*%
G04 APERTURE END LIST*
D10*
X172720000Y-62230000D03*
X172730000Y-72400000D03*
X172730000Y-67320000D03*
X165100000Y-62230000D03*
X165100000Y-72390000D03*
X165100000Y-67300000D03*
X172720000Y-54610000D03*
D11*
X165100000Y-54610000D03*
D12*
X163830000Y-50800000D03*
X168910000Y-50800000D03*
D13*
X159980000Y-81915000D03*
D14*
X157480000Y-81915000D03*
D13*
X153670000Y-60920000D03*
X153670000Y-58420000D03*
D15*
X177800000Y-57150000D03*
D16*
X177800000Y-54610000D03*
D17*
X177800000Y-81280000D03*
X177800000Y-78740000D03*
D18*
X177800000Y-76200000D03*
X177800000Y-67310000D03*
D17*
X177800000Y-69850000D03*
X177800000Y-72390000D03*
D13*
X157480000Y-53340000D03*
D19*
X157480000Y-60960000D03*
D20*
X173990000Y-78105000D03*
X163990000Y-80605000D03*
X173990000Y-83105000D03*
D17*
X177800000Y-60960000D03*
D18*
X177800000Y-63500000D03*
D21*
X161290000Y-64770000D03*
X153670000Y-72390000D03*
X161290000Y-67310000D03*
X153670000Y-69850000D03*
X161290000Y-69850000D03*
X153670000Y-67310000D03*
X161290000Y-72390000D03*
D22*
X153670000Y-64770000D03*
D23*
X161290000Y-76200000D03*
D16*
X153670000Y-76200000D03*
D19*
X161290000Y-60960000D03*
D13*
X161290000Y-53340000D03*
D24*
X173990000Y-78105000D02*
X166490000Y-78105000D01*
X166490000Y-78105000D02*
X163990000Y-80605000D01*
X157480000Y-60960000D02*
X163830000Y-54610000D01*
X163830000Y-54610000D02*
X165100000Y-54610000D01*
X161290000Y-60960000D02*
X154940000Y-67310000D01*
X154940000Y-67310000D02*
X153670000Y-67310000D01*
D25*
G36*
X162745472Y-49091210D02*
X162604004Y-49394399D01*
X163830000Y-50620395D01*
X165055996Y-49394399D01*
X164914528Y-49091210D01*
X164601257Y-48970000D01*
X168140904Y-48970000D01*
X167787051Y-49116209D01*
X167228171Y-49674114D01*
X166925335Y-50403425D01*
X166924646Y-51193111D01*
X167226209Y-51922949D01*
X167784114Y-52481829D01*
X168513425Y-52784665D01*
X169303111Y-52785354D01*
X170032949Y-52483791D01*
X170591829Y-51925886D01*
X170894665Y-51196575D01*
X170895354Y-50406889D01*
X170593791Y-49677051D01*
X170035886Y-49118171D01*
X169679050Y-48970000D01*
X178269229Y-48970000D01*
X177652251Y-49382251D01*
X177217622Y-50032720D01*
X177065000Y-50800000D01*
X177217622Y-51567280D01*
X177652251Y-52217749D01*
X178302720Y-52652378D01*
X179070000Y-52805000D01*
X179837280Y-52652378D01*
X180487749Y-52217749D01*
X180900000Y-51600771D01*
X180900000Y-84289229D01*
X180487749Y-83672251D01*
X179837280Y-83237622D01*
X179070000Y-83085000D01*
X178302720Y-83237622D01*
X177652251Y-83672251D01*
X177217622Y-84322720D01*
X177065000Y-85090000D01*
X177217622Y-85857280D01*
X177652251Y-86507749D01*
X178269229Y-86920000D01*
X154470771Y-86920000D01*
X155087749Y-86507749D01*
X155522378Y-85857280D01*
X155675000Y-85090000D01*
X155522378Y-84322720D01*
X155087749Y-83672251D01*
X154773778Y-83462462D01*
X172184687Y-83462462D01*
X172458903Y-84126115D01*
X172966215Y-84634312D01*
X173629388Y-84909686D01*
X174347462Y-84910313D01*
X175011115Y-84636097D01*
X175519312Y-84128785D01*
X175794686Y-83465612D01*
X175795313Y-82747538D01*
X175521097Y-82083885D01*
X175013785Y-81575688D01*
X174350612Y-81300314D01*
X173632538Y-81299687D01*
X172968885Y-81573903D01*
X172460688Y-82081215D01*
X172185314Y-82744388D01*
X172184687Y-83462462D01*
X154773778Y-83462462D01*
X154437280Y-83237622D01*
X153670000Y-83085000D01*
X152902720Y-83237622D01*
X152252251Y-83672251D01*
X151840000Y-84289229D01*
X151840000Y-81115000D01*
X156032560Y-81115000D01*
X156032560Y-82715000D01*
X156081843Y-82962765D01*
X156222191Y-83172809D01*
X156432235Y-83313157D01*
X156680000Y-83362440D01*
X158280000Y-83362440D01*
X158527765Y-83313157D01*
X158737809Y-83172809D01*
X158878157Y-82962765D01*
X158886117Y-82922745D01*
X159151861Y-82922745D01*
X159225995Y-83168864D01*
X159763223Y-83361965D01*
X160333454Y-83334778D01*
X160734005Y-83168864D01*
X160808139Y-82922745D01*
X159980000Y-82094605D01*
X159151861Y-82922745D01*
X158886117Y-82922745D01*
X158924693Y-82728813D01*
X158972255Y-82743139D01*
X159800395Y-81915000D01*
X160159605Y-81915000D01*
X160987745Y-82743139D01*
X161233864Y-82669005D01*
X161426965Y-82131777D01*
X161399778Y-81561546D01*
X161233864Y-81160995D01*
X160987745Y-81086861D01*
X160159605Y-81915000D01*
X159800395Y-81915000D01*
X158972255Y-81086861D01*
X158924693Y-81101187D01*
X158886118Y-80907255D01*
X159151861Y-80907255D01*
X159980000Y-81735395D01*
X160752932Y-80962462D01*
X162184687Y-80962462D01*
X162458903Y-81626115D01*
X162966215Y-82134312D01*
X163629388Y-82409686D01*
X164347462Y-82410313D01*
X165011115Y-82136097D01*
X165519312Y-81628785D01*
X165794686Y-80965612D01*
X165795313Y-80247538D01*
X165696578Y-80008580D01*
X166815158Y-78890000D01*
X172361342Y-78890000D01*
X172458903Y-79126115D01*
X172966215Y-79634312D01*
X173629388Y-79909686D01*
X174347462Y-79910313D01*
X175011115Y-79636097D01*
X175519312Y-79128785D01*
X175680749Y-78740000D01*
X176285907Y-78740000D01*
X176398946Y-79308285D01*
X176720853Y-79790054D01*
X177050026Y-80010000D01*
X176720853Y-80229946D01*
X176398946Y-80711715D01*
X176285907Y-81280000D01*
X176398946Y-81848285D01*
X176720853Y-82330054D01*
X177202622Y-82651961D01*
X177770907Y-82765000D01*
X177829093Y-82765000D01*
X178397378Y-82651961D01*
X178879147Y-82330054D01*
X179201054Y-81848285D01*
X179314093Y-81280000D01*
X179201054Y-80711715D01*
X178879147Y-80229946D01*
X178549974Y-80010000D01*
X178879147Y-79790054D01*
X179201054Y-79308285D01*
X179314093Y-78740000D01*
X179201054Y-78171715D01*
X178879147Y-77689946D01*
X178835223Y-77660597D01*
X178897765Y-77648157D01*
X179107809Y-77507809D01*
X179248157Y-77297765D01*
X179297440Y-77050000D01*
X179297440Y-75350000D01*
X179248157Y-75102235D01*
X179107809Y-74892191D01*
X178897765Y-74751843D01*
X178650000Y-74702560D01*
X176950000Y-74702560D01*
X176702235Y-74751843D01*
X176492191Y-74892191D01*
X176351843Y-75102235D01*
X176302560Y-75350000D01*
X176302560Y-77050000D01*
X176351843Y-77297765D01*
X176492191Y-77507809D01*
X176702235Y-77648157D01*
X176764777Y-77660597D01*
X176720853Y-77689946D01*
X176398946Y-78171715D01*
X176285907Y-78740000D01*
X175680749Y-78740000D01*
X175794686Y-78465612D01*
X175795313Y-77747538D01*
X175521097Y-77083885D01*
X175013785Y-76575688D01*
X174350612Y-76300314D01*
X173632538Y-76299687D01*
X172968885Y-76573903D01*
X172460688Y-77081215D01*
X172361536Y-77320000D01*
X166490000Y-77320000D01*
X166189594Y-77379755D01*
X165934921Y-77549921D01*
X164586556Y-78898286D01*
X164350612Y-78800314D01*
X163632538Y-78799687D01*
X162968885Y-79073903D01*
X162460688Y-79581215D01*
X162185314Y-80244388D01*
X162184687Y-80962462D01*
X160752932Y-80962462D01*
X160808139Y-80907255D01*
X160734005Y-80661136D01*
X160196777Y-80468035D01*
X159626546Y-80495222D01*
X159225995Y-80661136D01*
X159151861Y-80907255D01*
X158886118Y-80907255D01*
X158878157Y-80867235D01*
X158737809Y-80657191D01*
X158527765Y-80516843D01*
X158280000Y-80467560D01*
X156680000Y-80467560D01*
X156432235Y-80516843D01*
X156222191Y-80657191D01*
X156081843Y-80867235D01*
X156032560Y-81115000D01*
X151840000Y-81115000D01*
X151840000Y-75300000D01*
X152122560Y-75300000D01*
X152122560Y-77100000D01*
X152171843Y-77347765D01*
X152312191Y-77557809D01*
X152522235Y-77698157D01*
X152770000Y-77747440D01*
X154570000Y-77747440D01*
X154817765Y-77698157D01*
X155027809Y-77557809D01*
X155168157Y-77347765D01*
X155217440Y-77100000D01*
X155217440Y-76564740D01*
X159798964Y-76564740D01*
X159977760Y-76996417D01*
X160382424Y-77437966D01*
X160925258Y-77691046D01*
X161163000Y-77570997D01*
X161163000Y-76327000D01*
X161417000Y-76327000D01*
X161417000Y-77570997D01*
X161654742Y-77691046D01*
X162197576Y-77437966D01*
X162602240Y-76996417D01*
X162781036Y-76564740D01*
X162660378Y-76327000D01*
X161417000Y-76327000D01*
X161163000Y-76327000D01*
X159919622Y-76327000D01*
X159798964Y-76564740D01*
X155217440Y-76564740D01*
X155217440Y-75835260D01*
X159798964Y-75835260D01*
X159919622Y-76073000D01*
X161163000Y-76073000D01*
X161163000Y-74829003D01*
X161417000Y-74829003D01*
X161417000Y-76073000D01*
X162660378Y-76073000D01*
X162781036Y-75835260D01*
X162602240Y-75403583D01*
X162197576Y-74962034D01*
X161654742Y-74708954D01*
X161417000Y-74829003D01*
X161163000Y-74829003D01*
X160925258Y-74708954D01*
X160382424Y-74962034D01*
X159977760Y-75403583D01*
X159798964Y-75835260D01*
X155217440Y-75835260D01*
X155217440Y-75300000D01*
X155168157Y-75052235D01*
X155027809Y-74842191D01*
X154817765Y-74701843D01*
X154570000Y-74652560D01*
X152770000Y-74652560D01*
X152522235Y-74701843D01*
X152312191Y-74842191D01*
X152171843Y-75052235D01*
X152122560Y-75300000D01*
X151840000Y-75300000D01*
X151840000Y-72595869D01*
X151908283Y-72939151D01*
X152219352Y-73404698D01*
X152684899Y-73715767D01*
X153234050Y-73825000D01*
X154105950Y-73825000D01*
X154655101Y-73715767D01*
X155120648Y-73404698D01*
X155431717Y-72939151D01*
X155540950Y-72390000D01*
X155431717Y-71840849D01*
X155120648Y-71375302D01*
X154738562Y-71120000D01*
X155120648Y-70864698D01*
X155431717Y-70399151D01*
X155540950Y-69850000D01*
X155431717Y-69300849D01*
X155120648Y-68835302D01*
X154738562Y-68580000D01*
X155120648Y-68324698D01*
X155373456Y-67946345D01*
X155495079Y-67865079D01*
X158590158Y-64770000D01*
X159419050Y-64770000D01*
X159528283Y-65319151D01*
X159839352Y-65784698D01*
X160221438Y-66040000D01*
X159839352Y-66295302D01*
X159528283Y-66760849D01*
X159419050Y-67310000D01*
X159528283Y-67859151D01*
X159839352Y-68324698D01*
X160221438Y-68580000D01*
X159839352Y-68835302D01*
X159528283Y-69300849D01*
X159419050Y-69850000D01*
X159528283Y-70399151D01*
X159839352Y-70864698D01*
X160221438Y-71120000D01*
X159839352Y-71375302D01*
X159528283Y-71840849D01*
X159419050Y-72390000D01*
X159528283Y-72939151D01*
X159839352Y-73404698D01*
X160304899Y-73715767D01*
X160854050Y-73825000D01*
X161725950Y-73825000D01*
X162275101Y-73715767D01*
X162740648Y-73404698D01*
X163051717Y-72939151D01*
X163108360Y-72654383D01*
X163764769Y-72654383D01*
X163967582Y-73145229D01*
X164342796Y-73521098D01*
X164833287Y-73724768D01*
X165364383Y-73725231D01*
X165855229Y-73522418D01*
X166231098Y-73147204D01*
X166431583Y-72664383D01*
X171394769Y-72664383D01*
X171597582Y-73155229D01*
X171972796Y-73531098D01*
X172463287Y-73734768D01*
X172994383Y-73735231D01*
X173485229Y-73532418D01*
X173861098Y-73157204D01*
X174064768Y-72666713D01*
X174065231Y-72135617D01*
X173862418Y-71644771D01*
X173487204Y-71268902D01*
X172996713Y-71065232D01*
X172465617Y-71064769D01*
X171974771Y-71267582D01*
X171598902Y-71642796D01*
X171395232Y-72133287D01*
X171394769Y-72664383D01*
X166431583Y-72664383D01*
X166434768Y-72656713D01*
X166435231Y-72125617D01*
X166232418Y-71634771D01*
X165857204Y-71258902D01*
X165366713Y-71055232D01*
X164835617Y-71054769D01*
X164344771Y-71257582D01*
X163968902Y-71632796D01*
X163765232Y-72123287D01*
X163764769Y-72654383D01*
X163108360Y-72654383D01*
X163160950Y-72390000D01*
X163051717Y-71840849D01*
X162740648Y-71375302D01*
X162358562Y-71120000D01*
X162740648Y-70864698D01*
X163051717Y-70399151D01*
X163160950Y-69850000D01*
X176285907Y-69850000D01*
X176398946Y-70418285D01*
X176720853Y-70900054D01*
X177050026Y-71120000D01*
X176720853Y-71339946D01*
X176398946Y-71821715D01*
X176285907Y-72390000D01*
X176398946Y-72958285D01*
X176720853Y-73440054D01*
X177202622Y-73761961D01*
X177770907Y-73875000D01*
X177829093Y-73875000D01*
X178397378Y-73761961D01*
X178879147Y-73440054D01*
X179201054Y-72958285D01*
X179314093Y-72390000D01*
X179201054Y-71821715D01*
X178879147Y-71339946D01*
X178549974Y-71120000D01*
X178879147Y-70900054D01*
X179201054Y-70418285D01*
X179314093Y-69850000D01*
X179201054Y-69281715D01*
X178879147Y-68799946D01*
X178835223Y-68770597D01*
X178897765Y-68758157D01*
X179107809Y-68617809D01*
X179248157Y-68407765D01*
X179297440Y-68160000D01*
X179297440Y-66460000D01*
X179248157Y-66212235D01*
X179107809Y-66002191D01*
X178897765Y-65861843D01*
X178650000Y-65812560D01*
X176950000Y-65812560D01*
X176702235Y-65861843D01*
X176492191Y-66002191D01*
X176351843Y-66212235D01*
X176302560Y-66460000D01*
X176302560Y-68160000D01*
X176351843Y-68407765D01*
X176492191Y-68617809D01*
X176702235Y-68758157D01*
X176764777Y-68770597D01*
X176720853Y-68799946D01*
X176398946Y-69281715D01*
X176285907Y-69850000D01*
X163160950Y-69850000D01*
X163051717Y-69300849D01*
X162740648Y-68835302D01*
X162358562Y-68580000D01*
X162740648Y-68324698D01*
X163051717Y-67859151D01*
X163110350Y-67564383D01*
X163764769Y-67564383D01*
X163967582Y-68055229D01*
X164342796Y-68431098D01*
X164833287Y-68634768D01*
X165364383Y-68635231D01*
X165855229Y-68432418D01*
X166231098Y-68057204D01*
X166427430Y-67584383D01*
X171394769Y-67584383D01*
X171597582Y-68075229D01*
X171972796Y-68451098D01*
X172463287Y-68654768D01*
X172994383Y-68655231D01*
X173485229Y-68452418D01*
X173861098Y-68077204D01*
X174064768Y-67586713D01*
X174065231Y-67055617D01*
X173862418Y-66564771D01*
X173487204Y-66188902D01*
X172996713Y-65985232D01*
X172465617Y-65984769D01*
X171974771Y-66187582D01*
X171598902Y-66562796D01*
X171395232Y-67053287D01*
X171394769Y-67584383D01*
X166427430Y-67584383D01*
X166434768Y-67566713D01*
X166435231Y-67035617D01*
X166232418Y-66544771D01*
X165857204Y-66168902D01*
X165366713Y-65965232D01*
X164835617Y-65964769D01*
X164344771Y-66167582D01*
X163968902Y-66542796D01*
X163765232Y-67033287D01*
X163764769Y-67564383D01*
X163110350Y-67564383D01*
X163160950Y-67310000D01*
X163051717Y-66760849D01*
X162740648Y-66295302D01*
X162358562Y-66040000D01*
X162740648Y-65784698D01*
X163051717Y-65319151D01*
X163160950Y-64770000D01*
X163051717Y-64220849D01*
X162760993Y-63785750D01*
X176315000Y-63785750D01*
X176315000Y-64476309D01*
X176411673Y-64709698D01*
X176590301Y-64888327D01*
X176823690Y-64985000D01*
X177514250Y-64985000D01*
X177673000Y-64826250D01*
X177673000Y-63627000D01*
X177927000Y-63627000D01*
X177927000Y-64826250D01*
X178085750Y-64985000D01*
X178776310Y-64985000D01*
X179009699Y-64888327D01*
X179188327Y-64709698D01*
X179285000Y-64476309D01*
X179285000Y-63785750D01*
X179126250Y-63627000D01*
X177927000Y-63627000D01*
X177673000Y-63627000D01*
X176473750Y-63627000D01*
X176315000Y-63785750D01*
X162760993Y-63785750D01*
X162740648Y-63755302D01*
X162275101Y-63444233D01*
X161725950Y-63335000D01*
X160854050Y-63335000D01*
X160304899Y-63444233D01*
X159839352Y-63755302D01*
X159528283Y-64220849D01*
X159419050Y-64770000D01*
X158590158Y-64770000D01*
X160865775Y-62494383D01*
X163764769Y-62494383D01*
X163967582Y-62985229D01*
X164342796Y-63361098D01*
X164833287Y-63564768D01*
X165364383Y-63565231D01*
X165855229Y-63362418D01*
X166231098Y-62987204D01*
X166434768Y-62496713D01*
X166434770Y-62494383D01*
X171384769Y-62494383D01*
X171587582Y-62985229D01*
X171962796Y-63361098D01*
X172453287Y-63564768D01*
X172984383Y-63565231D01*
X173475229Y-63362418D01*
X173851098Y-62987204D01*
X174054768Y-62496713D01*
X174055231Y-61965617D01*
X173852418Y-61474771D01*
X173477204Y-61098902D01*
X173072628Y-60930907D01*
X176315000Y-60930907D01*
X176315000Y-60989093D01*
X176428039Y-61557378D01*
X176749946Y-62039147D01*
X176755858Y-62043097D01*
X176590301Y-62111673D01*
X176411673Y-62290302D01*
X176315000Y-62523691D01*
X176315000Y-63214250D01*
X176473750Y-63373000D01*
X177673000Y-63373000D01*
X177673000Y-63353000D01*
X177927000Y-63353000D01*
X177927000Y-63373000D01*
X179126250Y-63373000D01*
X179285000Y-63214250D01*
X179285000Y-62523691D01*
X179188327Y-62290302D01*
X179009699Y-62111673D01*
X178844142Y-62043097D01*
X178850054Y-62039147D01*
X179171961Y-61557378D01*
X179285000Y-60989093D01*
X179285000Y-60930907D01*
X179171961Y-60362622D01*
X178850054Y-59880853D01*
X178368285Y-59558946D01*
X177800000Y-59445907D01*
X177231715Y-59558946D01*
X176749946Y-59880853D01*
X176428039Y-60362622D01*
X176315000Y-60930907D01*
X173072628Y-60930907D01*
X172986713Y-60895232D01*
X172455617Y-60894769D01*
X171964771Y-61097582D01*
X171588902Y-61472796D01*
X171385232Y-61963287D01*
X171384769Y-62494383D01*
X166434770Y-62494383D01*
X166435231Y-61965617D01*
X166232418Y-61474771D01*
X165857204Y-61098902D01*
X165366713Y-60895232D01*
X164835617Y-60894769D01*
X164344771Y-61097582D01*
X163968902Y-61472796D01*
X163765232Y-61963287D01*
X163764769Y-62494383D01*
X160865775Y-62494383D01*
X160995604Y-62364554D01*
X161290000Y-62423113D01*
X161839151Y-62313880D01*
X162304698Y-62002811D01*
X162615767Y-61537264D01*
X162725000Y-60988113D01*
X162725000Y-60931887D01*
X162615767Y-60382736D01*
X162304698Y-59917189D01*
X161839151Y-59606120D01*
X161290000Y-59496887D01*
X160740849Y-59606120D01*
X160275302Y-59917189D01*
X159964233Y-60382736D01*
X159855000Y-60931887D01*
X159855000Y-60988113D01*
X159904231Y-61235611D01*
X155505000Y-65634842D01*
X155505000Y-65055750D01*
X155346250Y-64897000D01*
X153797000Y-64897000D01*
X153797000Y-64917000D01*
X153543000Y-64917000D01*
X153543000Y-64897000D01*
X153523000Y-64897000D01*
X153523000Y-64643000D01*
X153543000Y-64643000D01*
X153543000Y-63493750D01*
X153797000Y-63493750D01*
X153797000Y-64643000D01*
X155346250Y-64643000D01*
X155505000Y-64484250D01*
X155505000Y-63843690D01*
X155408327Y-63610301D01*
X155229698Y-63431673D01*
X154996309Y-63335000D01*
X153955750Y-63335000D01*
X153797000Y-63493750D01*
X153543000Y-63493750D01*
X153384250Y-63335000D01*
X152343691Y-63335000D01*
X152110302Y-63431673D01*
X151931673Y-63610301D01*
X151840000Y-63831619D01*
X151840000Y-61204187D01*
X152234752Y-61204187D01*
X152452757Y-61731800D01*
X152856077Y-62135824D01*
X153383309Y-62354750D01*
X153954187Y-62355248D01*
X154481800Y-62137243D01*
X154885824Y-61733923D01*
X155104750Y-61206691D01*
X155104989Y-60931887D01*
X156045000Y-60931887D01*
X156045000Y-60988113D01*
X156154233Y-61537264D01*
X156465302Y-62002811D01*
X156930849Y-62313880D01*
X157480000Y-62423113D01*
X158029151Y-62313880D01*
X158494698Y-62002811D01*
X158805767Y-61537264D01*
X158915000Y-60988113D01*
X158915000Y-60931887D01*
X158865769Y-60684389D01*
X162096167Y-57453991D01*
X176264735Y-57453991D01*
X176497932Y-58018371D01*
X176929357Y-58450551D01*
X177493330Y-58684733D01*
X178103991Y-58685265D01*
X178668371Y-58452068D01*
X179100551Y-58020643D01*
X179334733Y-57456670D01*
X179335265Y-56846009D01*
X179102068Y-56281629D01*
X178924908Y-56104159D01*
X179059699Y-56048327D01*
X179238327Y-55869698D01*
X179335000Y-55636309D01*
X179335000Y-54895750D01*
X179176250Y-54737000D01*
X177927000Y-54737000D01*
X177927000Y-54757000D01*
X177673000Y-54757000D01*
X177673000Y-54737000D01*
X176423750Y-54737000D01*
X176265000Y-54895750D01*
X176265000Y-55636309D01*
X176361673Y-55869698D01*
X176540301Y-56048327D01*
X176674994Y-56104119D01*
X176499449Y-56279357D01*
X176265267Y-56843330D01*
X176264735Y-57453991D01*
X162096167Y-57453991D01*
X163878167Y-55671991D01*
X163942191Y-55767809D01*
X164152235Y-55908157D01*
X164400000Y-55957440D01*
X165800000Y-55957440D01*
X166047765Y-55908157D01*
X166257809Y-55767809D01*
X166398157Y-55557765D01*
X166400641Y-55545275D01*
X171964331Y-55545275D01*
X172026169Y-55781042D01*
X172527122Y-55957419D01*
X173057440Y-55928664D01*
X173413831Y-55781042D01*
X173475669Y-55545275D01*
X172720000Y-54789605D01*
X171964331Y-55545275D01*
X166400641Y-55545275D01*
X166447440Y-55310000D01*
X166447440Y-54417122D01*
X171372581Y-54417122D01*
X171401336Y-54947440D01*
X171548958Y-55303831D01*
X171784725Y-55365669D01*
X172540395Y-54610000D01*
X172899605Y-54610000D01*
X173655275Y-55365669D01*
X173891042Y-55303831D01*
X174067419Y-54802878D01*
X174038664Y-54272560D01*
X173891042Y-53916169D01*
X173655275Y-53854331D01*
X172899605Y-54610000D01*
X172540395Y-54610000D01*
X171784725Y-53854331D01*
X171548958Y-53916169D01*
X171372581Y-54417122D01*
X166447440Y-54417122D01*
X166447440Y-53910000D01*
X166400642Y-53674725D01*
X171964331Y-53674725D01*
X172720000Y-54430395D01*
X173475669Y-53674725D01*
X173451793Y-53583691D01*
X176265000Y-53583691D01*
X176265000Y-54324250D01*
X176423750Y-54483000D01*
X177673000Y-54483000D01*
X177673000Y-53233750D01*
X177927000Y-53233750D01*
X177927000Y-54483000D01*
X179176250Y-54483000D01*
X179335000Y-54324250D01*
X179335000Y-53583691D01*
X179238327Y-53350302D01*
X179059699Y-53171673D01*
X178826310Y-53075000D01*
X178085750Y-53075000D01*
X177927000Y-53233750D01*
X177673000Y-53233750D01*
X177514250Y-53075000D01*
X176773690Y-53075000D01*
X176540301Y-53171673D01*
X176361673Y-53350302D01*
X176265000Y-53583691D01*
X173451793Y-53583691D01*
X173413831Y-53438958D01*
X172912878Y-53262581D01*
X172382560Y-53291336D01*
X172026169Y-53438958D01*
X171964331Y-53674725D01*
X166400642Y-53674725D01*
X166398157Y-53662235D01*
X166257809Y-53452191D01*
X166047765Y-53311843D01*
X165800000Y-53262560D01*
X164400000Y-53262560D01*
X164152235Y-53311843D01*
X163942191Y-53452191D01*
X163801843Y-53662235D01*
X163766974Y-53837537D01*
X163529593Y-53884755D01*
X163274921Y-54054921D01*
X157774396Y-59555446D01*
X157480000Y-59496887D01*
X156930849Y-59606120D01*
X156465302Y-59917189D01*
X156154233Y-60382736D01*
X156045000Y-60931887D01*
X155104989Y-60931887D01*
X155105248Y-60635813D01*
X154887243Y-60108200D01*
X154483923Y-59704176D01*
X154417456Y-59676577D01*
X154424005Y-59673864D01*
X154498139Y-59427745D01*
X153670000Y-58599605D01*
X152841861Y-59427745D01*
X152915995Y-59673864D01*
X152922483Y-59676196D01*
X152858200Y-59702757D01*
X152454176Y-60106077D01*
X152235250Y-60633309D01*
X152234752Y-61204187D01*
X151840000Y-61204187D01*
X151840000Y-58203223D01*
X152223035Y-58203223D01*
X152250222Y-58773454D01*
X152416136Y-59174005D01*
X152662255Y-59248139D01*
X153490395Y-58420000D01*
X153849605Y-58420000D01*
X154677745Y-59248139D01*
X154923864Y-59174005D01*
X155116965Y-58636777D01*
X155089778Y-58066546D01*
X154923864Y-57665995D01*
X154677745Y-57591861D01*
X153849605Y-58420000D01*
X153490395Y-58420000D01*
X152662255Y-57591861D01*
X152416136Y-57665995D01*
X152223035Y-58203223D01*
X151840000Y-58203223D01*
X151840000Y-57412255D01*
X152841861Y-57412255D01*
X153670000Y-58240395D01*
X154498139Y-57412255D01*
X154424005Y-57166136D01*
X153886777Y-56973035D01*
X153316546Y-57000222D01*
X152915995Y-57166136D01*
X152841861Y-57412255D01*
X151840000Y-57412255D01*
X151840000Y-53624187D01*
X156044752Y-53624187D01*
X156262757Y-54151800D01*
X156666077Y-54555824D01*
X157193309Y-54774750D01*
X157764187Y-54775248D01*
X158291800Y-54557243D01*
X158695824Y-54153923D01*
X158914750Y-53626691D01*
X158914752Y-53624187D01*
X159854752Y-53624187D01*
X160072757Y-54151800D01*
X160476077Y-54555824D01*
X161003309Y-54774750D01*
X161574187Y-54775248D01*
X162101800Y-54557243D01*
X162505824Y-54153923D01*
X162724750Y-53626691D01*
X162725248Y-53055813D01*
X162507243Y-52528200D01*
X162185207Y-52205601D01*
X162604004Y-52205601D01*
X162745472Y-52508790D01*
X163481952Y-52793747D01*
X164271420Y-52775174D01*
X164914528Y-52508790D01*
X165055996Y-52205601D01*
X163830000Y-50979605D01*
X162604004Y-52205601D01*
X162185207Y-52205601D01*
X162103923Y-52124176D01*
X161576691Y-51905250D01*
X161005813Y-51904752D01*
X160478200Y-52122757D01*
X160074176Y-52526077D01*
X159855250Y-53053309D01*
X159854752Y-53624187D01*
X158914752Y-53624187D01*
X158915248Y-53055813D01*
X158697243Y-52528200D01*
X158293923Y-52124176D01*
X157766691Y-51905250D01*
X157195813Y-51904752D01*
X156668200Y-52122757D01*
X156264176Y-52526077D01*
X156045250Y-53053309D01*
X156044752Y-53624187D01*
X151840000Y-53624187D01*
X151840000Y-51600771D01*
X152252251Y-52217749D01*
X152902720Y-52652378D01*
X153670000Y-52805000D01*
X154437280Y-52652378D01*
X155087749Y-52217749D01*
X155522378Y-51567280D01*
X155675000Y-50800000D01*
X155605769Y-50451952D01*
X161836253Y-50451952D01*
X161854826Y-51241420D01*
X162121210Y-51884528D01*
X162424399Y-52025996D01*
X163650395Y-50800000D01*
X164009605Y-50800000D01*
X165235601Y-52025996D01*
X165538790Y-51884528D01*
X165823747Y-51148048D01*
X165805174Y-50358580D01*
X165538790Y-49715472D01*
X165235601Y-49574004D01*
X164009605Y-50800000D01*
X163650395Y-50800000D01*
X162424399Y-49574004D01*
X162121210Y-49715472D01*
X161836253Y-50451952D01*
X155605769Y-50451952D01*
X155522378Y-50032720D01*
X155087749Y-49382251D01*
X154470771Y-48970000D01*
X163038099Y-48970000D01*
X162745472Y-49091210D01*
X162745472Y-49091210D01*
G37*
X162745472Y-49091210D02*
X162604004Y-49394399D01*
X163830000Y-50620395D01*
X165055996Y-49394399D01*
X164914528Y-49091210D01*
X164601257Y-48970000D01*
X168140904Y-48970000D01*
X167787051Y-49116209D01*
X167228171Y-49674114D01*
X166925335Y-50403425D01*
X166924646Y-51193111D01*
X167226209Y-51922949D01*
X167784114Y-52481829D01*
X168513425Y-52784665D01*
X169303111Y-52785354D01*
X170032949Y-52483791D01*
X170591829Y-51925886D01*
X170894665Y-51196575D01*
X170895354Y-50406889D01*
X170593791Y-49677051D01*
X170035886Y-49118171D01*
X169679050Y-48970000D01*
X178269229Y-48970000D01*
X177652251Y-49382251D01*
X177217622Y-50032720D01*
X177065000Y-50800000D01*
X177217622Y-51567280D01*
X177652251Y-52217749D01*
X178302720Y-52652378D01*
X179070000Y-52805000D01*
X179837280Y-52652378D01*
X180487749Y-52217749D01*
X180900000Y-51600771D01*
X180900000Y-84289229D01*
X180487749Y-83672251D01*
X179837280Y-83237622D01*
X179070000Y-83085000D01*
X178302720Y-83237622D01*
X177652251Y-83672251D01*
X177217622Y-84322720D01*
X177065000Y-85090000D01*
X177217622Y-85857280D01*
X177652251Y-86507749D01*
X178269229Y-86920000D01*
X154470771Y-86920000D01*
X155087749Y-86507749D01*
X155522378Y-85857280D01*
X155675000Y-85090000D01*
X155522378Y-84322720D01*
X155087749Y-83672251D01*
X154773778Y-83462462D01*
X172184687Y-83462462D01*
X172458903Y-84126115D01*
X172966215Y-84634312D01*
X173629388Y-84909686D01*
X174347462Y-84910313D01*
X175011115Y-84636097D01*
X175519312Y-84128785D01*
X175794686Y-83465612D01*
X175795313Y-82747538D01*
X175521097Y-82083885D01*
X175013785Y-81575688D01*
X174350612Y-81300314D01*
X173632538Y-81299687D01*
X172968885Y-81573903D01*
X172460688Y-82081215D01*
X172185314Y-82744388D01*
X172184687Y-83462462D01*
X154773778Y-83462462D01*
X154437280Y-83237622D01*
X153670000Y-83085000D01*
X152902720Y-83237622D01*
X152252251Y-83672251D01*
X151840000Y-84289229D01*
X151840000Y-81115000D01*
X156032560Y-81115000D01*
X156032560Y-82715000D01*
X156081843Y-82962765D01*
X156222191Y-83172809D01*
X156432235Y-83313157D01*
X156680000Y-83362440D01*
X158280000Y-83362440D01*
X158527765Y-83313157D01*
X158737809Y-83172809D01*
X158878157Y-82962765D01*
X158886117Y-82922745D01*
X159151861Y-82922745D01*
X159225995Y-83168864D01*
X159763223Y-83361965D01*
X160333454Y-83334778D01*
X160734005Y-83168864D01*
X160808139Y-82922745D01*
X159980000Y-82094605D01*
X159151861Y-82922745D01*
X158886117Y-82922745D01*
X158924693Y-82728813D01*
X158972255Y-82743139D01*
X159800395Y-81915000D01*
X160159605Y-81915000D01*
X160987745Y-82743139D01*
X161233864Y-82669005D01*
X161426965Y-82131777D01*
X161399778Y-81561546D01*
X161233864Y-81160995D01*
X160987745Y-81086861D01*
X160159605Y-81915000D01*
X159800395Y-81915000D01*
X158972255Y-81086861D01*
X158924693Y-81101187D01*
X158886118Y-80907255D01*
X159151861Y-80907255D01*
X159980000Y-81735395D01*
X160752932Y-80962462D01*
X162184687Y-80962462D01*
X162458903Y-81626115D01*
X162966215Y-82134312D01*
X163629388Y-82409686D01*
X164347462Y-82410313D01*
X165011115Y-82136097D01*
X165519312Y-81628785D01*
X165794686Y-80965612D01*
X165795313Y-80247538D01*
X165696578Y-80008580D01*
X166815158Y-78890000D01*
X172361342Y-78890000D01*
X172458903Y-79126115D01*
X172966215Y-79634312D01*
X173629388Y-79909686D01*
X174347462Y-79910313D01*
X175011115Y-79636097D01*
X175519312Y-79128785D01*
X175680749Y-78740000D01*
X176285907Y-78740000D01*
X176398946Y-79308285D01*
X176720853Y-79790054D01*
X177050026Y-80010000D01*
X176720853Y-80229946D01*
X176398946Y-80711715D01*
X176285907Y-81280000D01*
X176398946Y-81848285D01*
X176720853Y-82330054D01*
X177202622Y-82651961D01*
X177770907Y-82765000D01*
X177829093Y-82765000D01*
X178397378Y-82651961D01*
X178879147Y-82330054D01*
X179201054Y-81848285D01*
X179314093Y-81280000D01*
X179201054Y-80711715D01*
X178879147Y-80229946D01*
X178549974Y-80010000D01*
X178879147Y-79790054D01*
X179201054Y-79308285D01*
X179314093Y-78740000D01*
X179201054Y-78171715D01*
X178879147Y-77689946D01*
X178835223Y-77660597D01*
X178897765Y-77648157D01*
X179107809Y-77507809D01*
X179248157Y-77297765D01*
X179297440Y-77050000D01*
X179297440Y-75350000D01*
X179248157Y-75102235D01*
X179107809Y-74892191D01*
X178897765Y-74751843D01*
X178650000Y-74702560D01*
X176950000Y-74702560D01*
X176702235Y-74751843D01*
X176492191Y-74892191D01*
X176351843Y-75102235D01*
X176302560Y-75350000D01*
X176302560Y-77050000D01*
X176351843Y-77297765D01*
X176492191Y-77507809D01*
X176702235Y-77648157D01*
X176764777Y-77660597D01*
X176720853Y-77689946D01*
X176398946Y-78171715D01*
X176285907Y-78740000D01*
X175680749Y-78740000D01*
X175794686Y-78465612D01*
X175795313Y-77747538D01*
X175521097Y-77083885D01*
X175013785Y-76575688D01*
X174350612Y-76300314D01*
X173632538Y-76299687D01*
X172968885Y-76573903D01*
X172460688Y-77081215D01*
X172361536Y-77320000D01*
X166490000Y-77320000D01*
X166189594Y-77379755D01*
X165934921Y-77549921D01*
X164586556Y-78898286D01*
X164350612Y-78800314D01*
X163632538Y-78799687D01*
X162968885Y-79073903D01*
X162460688Y-79581215D01*
X162185314Y-80244388D01*
X162184687Y-80962462D01*
X160752932Y-80962462D01*
X160808139Y-80907255D01*
X160734005Y-80661136D01*
X160196777Y-80468035D01*
X159626546Y-80495222D01*
X159225995Y-80661136D01*
X159151861Y-80907255D01*
X158886118Y-80907255D01*
X158878157Y-80867235D01*
X158737809Y-80657191D01*
X158527765Y-80516843D01*
X158280000Y-80467560D01*
X156680000Y-80467560D01*
X156432235Y-80516843D01*
X156222191Y-80657191D01*
X156081843Y-80867235D01*
X156032560Y-81115000D01*
X151840000Y-81115000D01*
X151840000Y-75300000D01*
X152122560Y-75300000D01*
X152122560Y-77100000D01*
X152171843Y-77347765D01*
X152312191Y-77557809D01*
X152522235Y-77698157D01*
X152770000Y-77747440D01*
X154570000Y-77747440D01*
X154817765Y-77698157D01*
X155027809Y-77557809D01*
X155168157Y-77347765D01*
X155217440Y-77100000D01*
X155217440Y-76564740D01*
X159798964Y-76564740D01*
X159977760Y-76996417D01*
X160382424Y-77437966D01*
X160925258Y-77691046D01*
X161163000Y-77570997D01*
X161163000Y-76327000D01*
X161417000Y-76327000D01*
X161417000Y-77570997D01*
X161654742Y-77691046D01*
X162197576Y-77437966D01*
X162602240Y-76996417D01*
X162781036Y-76564740D01*
X162660378Y-76327000D01*
X161417000Y-76327000D01*
X161163000Y-76327000D01*
X159919622Y-76327000D01*
X159798964Y-76564740D01*
X155217440Y-76564740D01*
X155217440Y-75835260D01*
X159798964Y-75835260D01*
X159919622Y-76073000D01*
X161163000Y-76073000D01*
X161163000Y-74829003D01*
X161417000Y-74829003D01*
X161417000Y-76073000D01*
X162660378Y-76073000D01*
X162781036Y-75835260D01*
X162602240Y-75403583D01*
X162197576Y-74962034D01*
X161654742Y-74708954D01*
X161417000Y-74829003D01*
X161163000Y-74829003D01*
X160925258Y-74708954D01*
X160382424Y-74962034D01*
X159977760Y-75403583D01*
X159798964Y-75835260D01*
X155217440Y-75835260D01*
X155217440Y-75300000D01*
X155168157Y-75052235D01*
X155027809Y-74842191D01*
X154817765Y-74701843D01*
X154570000Y-74652560D01*
X152770000Y-74652560D01*
X152522235Y-74701843D01*
X152312191Y-74842191D01*
X152171843Y-75052235D01*
X152122560Y-75300000D01*
X151840000Y-75300000D01*
X151840000Y-72595869D01*
X151908283Y-72939151D01*
X152219352Y-73404698D01*
X152684899Y-73715767D01*
X153234050Y-73825000D01*
X154105950Y-73825000D01*
X154655101Y-73715767D01*
X155120648Y-73404698D01*
X155431717Y-72939151D01*
X155540950Y-72390000D01*
X155431717Y-71840849D01*
X155120648Y-71375302D01*
X154738562Y-71120000D01*
X155120648Y-70864698D01*
X155431717Y-70399151D01*
X155540950Y-69850000D01*
X155431717Y-69300849D01*
X155120648Y-68835302D01*
X154738562Y-68580000D01*
X155120648Y-68324698D01*
X155373456Y-67946345D01*
X155495079Y-67865079D01*
X158590158Y-64770000D01*
X159419050Y-64770000D01*
X159528283Y-65319151D01*
X159839352Y-65784698D01*
X160221438Y-66040000D01*
X159839352Y-66295302D01*
X159528283Y-66760849D01*
X159419050Y-67310000D01*
X159528283Y-67859151D01*
X159839352Y-68324698D01*
X160221438Y-68580000D01*
X159839352Y-68835302D01*
X159528283Y-69300849D01*
X159419050Y-69850000D01*
X159528283Y-70399151D01*
X159839352Y-70864698D01*
X160221438Y-71120000D01*
X159839352Y-71375302D01*
X159528283Y-71840849D01*
X159419050Y-72390000D01*
X159528283Y-72939151D01*
X159839352Y-73404698D01*
X160304899Y-73715767D01*
X160854050Y-73825000D01*
X161725950Y-73825000D01*
X162275101Y-73715767D01*
X162740648Y-73404698D01*
X163051717Y-72939151D01*
X163108360Y-72654383D01*
X163764769Y-72654383D01*
X163967582Y-73145229D01*
X164342796Y-73521098D01*
X164833287Y-73724768D01*
X165364383Y-73725231D01*
X165855229Y-73522418D01*
X166231098Y-73147204D01*
X166431583Y-72664383D01*
X171394769Y-72664383D01*
X171597582Y-73155229D01*
X171972796Y-73531098D01*
X172463287Y-73734768D01*
X172994383Y-73735231D01*
X173485229Y-73532418D01*
X173861098Y-73157204D01*
X174064768Y-72666713D01*
X174065231Y-72135617D01*
X173862418Y-71644771D01*
X173487204Y-71268902D01*
X172996713Y-71065232D01*
X172465617Y-71064769D01*
X171974771Y-71267582D01*
X171598902Y-71642796D01*
X171395232Y-72133287D01*
X171394769Y-72664383D01*
X166431583Y-72664383D01*
X166434768Y-72656713D01*
X166435231Y-72125617D01*
X166232418Y-71634771D01*
X165857204Y-71258902D01*
X165366713Y-71055232D01*
X164835617Y-71054769D01*
X164344771Y-71257582D01*
X163968902Y-71632796D01*
X163765232Y-72123287D01*
X163764769Y-72654383D01*
X163108360Y-72654383D01*
X163160950Y-72390000D01*
X163051717Y-71840849D01*
X162740648Y-71375302D01*
X162358562Y-71120000D01*
X162740648Y-70864698D01*
X163051717Y-70399151D01*
X163160950Y-69850000D01*
X176285907Y-69850000D01*
X176398946Y-70418285D01*
X176720853Y-70900054D01*
X177050026Y-71120000D01*
X176720853Y-71339946D01*
X176398946Y-71821715D01*
X176285907Y-72390000D01*
X176398946Y-72958285D01*
X176720853Y-73440054D01*
X177202622Y-73761961D01*
X177770907Y-73875000D01*
X177829093Y-73875000D01*
X178397378Y-73761961D01*
X178879147Y-73440054D01*
X179201054Y-72958285D01*
X179314093Y-72390000D01*
X179201054Y-71821715D01*
X178879147Y-71339946D01*
X178549974Y-71120000D01*
X178879147Y-70900054D01*
X179201054Y-70418285D01*
X179314093Y-69850000D01*
X179201054Y-69281715D01*
X178879147Y-68799946D01*
X178835223Y-68770597D01*
X178897765Y-68758157D01*
X179107809Y-68617809D01*
X179248157Y-68407765D01*
X179297440Y-68160000D01*
X179297440Y-66460000D01*
X179248157Y-66212235D01*
X179107809Y-66002191D01*
X178897765Y-65861843D01*
X178650000Y-65812560D01*
X176950000Y-65812560D01*
X176702235Y-65861843D01*
X176492191Y-66002191D01*
X176351843Y-66212235D01*
X176302560Y-66460000D01*
X176302560Y-68160000D01*
X176351843Y-68407765D01*
X176492191Y-68617809D01*
X176702235Y-68758157D01*
X176764777Y-68770597D01*
X176720853Y-68799946D01*
X176398946Y-69281715D01*
X176285907Y-69850000D01*
X163160950Y-69850000D01*
X163051717Y-69300849D01*
X162740648Y-68835302D01*
X162358562Y-68580000D01*
X162740648Y-68324698D01*
X163051717Y-67859151D01*
X163110350Y-67564383D01*
X163764769Y-67564383D01*
X163967582Y-68055229D01*
X164342796Y-68431098D01*
X164833287Y-68634768D01*
X165364383Y-68635231D01*
X165855229Y-68432418D01*
X166231098Y-68057204D01*
X166427430Y-67584383D01*
X171394769Y-67584383D01*
X171597582Y-68075229D01*
X171972796Y-68451098D01*
X172463287Y-68654768D01*
X172994383Y-68655231D01*
X173485229Y-68452418D01*
X173861098Y-68077204D01*
X174064768Y-67586713D01*
X174065231Y-67055617D01*
X173862418Y-66564771D01*
X173487204Y-66188902D01*
X172996713Y-65985232D01*
X172465617Y-65984769D01*
X171974771Y-66187582D01*
X171598902Y-66562796D01*
X171395232Y-67053287D01*
X171394769Y-67584383D01*
X166427430Y-67584383D01*
X166434768Y-67566713D01*
X166435231Y-67035617D01*
X166232418Y-66544771D01*
X165857204Y-66168902D01*
X165366713Y-65965232D01*
X164835617Y-65964769D01*
X164344771Y-66167582D01*
X163968902Y-66542796D01*
X163765232Y-67033287D01*
X163764769Y-67564383D01*
X163110350Y-67564383D01*
X163160950Y-67310000D01*
X163051717Y-66760849D01*
X162740648Y-66295302D01*
X162358562Y-66040000D01*
X162740648Y-65784698D01*
X163051717Y-65319151D01*
X163160950Y-64770000D01*
X163051717Y-64220849D01*
X162760993Y-63785750D01*
X176315000Y-63785750D01*
X176315000Y-64476309D01*
X176411673Y-64709698D01*
X176590301Y-64888327D01*
X176823690Y-64985000D01*
X177514250Y-64985000D01*
X177673000Y-64826250D01*
X177673000Y-63627000D01*
X177927000Y-63627000D01*
X177927000Y-64826250D01*
X178085750Y-64985000D01*
X178776310Y-64985000D01*
X179009699Y-64888327D01*
X179188327Y-64709698D01*
X179285000Y-64476309D01*
X179285000Y-63785750D01*
X179126250Y-63627000D01*
X177927000Y-63627000D01*
X177673000Y-63627000D01*
X176473750Y-63627000D01*
X176315000Y-63785750D01*
X162760993Y-63785750D01*
X162740648Y-63755302D01*
X162275101Y-63444233D01*
X161725950Y-63335000D01*
X160854050Y-63335000D01*
X160304899Y-63444233D01*
X159839352Y-63755302D01*
X159528283Y-64220849D01*
X159419050Y-64770000D01*
X158590158Y-64770000D01*
X160865775Y-62494383D01*
X163764769Y-62494383D01*
X163967582Y-62985229D01*
X164342796Y-63361098D01*
X164833287Y-63564768D01*
X165364383Y-63565231D01*
X165855229Y-63362418D01*
X166231098Y-62987204D01*
X166434768Y-62496713D01*
X166434770Y-62494383D01*
X171384769Y-62494383D01*
X171587582Y-62985229D01*
X171962796Y-63361098D01*
X172453287Y-63564768D01*
X172984383Y-63565231D01*
X173475229Y-63362418D01*
X173851098Y-62987204D01*
X174054768Y-62496713D01*
X174055231Y-61965617D01*
X173852418Y-61474771D01*
X173477204Y-61098902D01*
X173072628Y-60930907D01*
X176315000Y-60930907D01*
X176315000Y-60989093D01*
X176428039Y-61557378D01*
X176749946Y-62039147D01*
X176755858Y-62043097D01*
X176590301Y-62111673D01*
X176411673Y-62290302D01*
X176315000Y-62523691D01*
X176315000Y-63214250D01*
X176473750Y-63373000D01*
X177673000Y-63373000D01*
X177673000Y-63353000D01*
X177927000Y-63353000D01*
X177927000Y-63373000D01*
X179126250Y-63373000D01*
X179285000Y-63214250D01*
X179285000Y-62523691D01*
X179188327Y-62290302D01*
X179009699Y-62111673D01*
X178844142Y-62043097D01*
X178850054Y-62039147D01*
X179171961Y-61557378D01*
X179285000Y-60989093D01*
X179285000Y-60930907D01*
X179171961Y-60362622D01*
X178850054Y-59880853D01*
X178368285Y-59558946D01*
X177800000Y-59445907D01*
X177231715Y-59558946D01*
X176749946Y-59880853D01*
X176428039Y-60362622D01*
X176315000Y-60930907D01*
X173072628Y-60930907D01*
X172986713Y-60895232D01*
X172455617Y-60894769D01*
X171964771Y-61097582D01*
X171588902Y-61472796D01*
X171385232Y-61963287D01*
X171384769Y-62494383D01*
X166434770Y-62494383D01*
X166435231Y-61965617D01*
X166232418Y-61474771D01*
X165857204Y-61098902D01*
X165366713Y-60895232D01*
X164835617Y-60894769D01*
X164344771Y-61097582D01*
X163968902Y-61472796D01*
X163765232Y-61963287D01*
X163764769Y-62494383D01*
X160865775Y-62494383D01*
X160995604Y-62364554D01*
X161290000Y-62423113D01*
X161839151Y-62313880D01*
X162304698Y-62002811D01*
X162615767Y-61537264D01*
X162725000Y-60988113D01*
X162725000Y-60931887D01*
X162615767Y-60382736D01*
X162304698Y-59917189D01*
X161839151Y-59606120D01*
X161290000Y-59496887D01*
X160740849Y-59606120D01*
X160275302Y-59917189D01*
X159964233Y-60382736D01*
X159855000Y-60931887D01*
X159855000Y-60988113D01*
X159904231Y-61235611D01*
X155505000Y-65634842D01*
X155505000Y-65055750D01*
X155346250Y-64897000D01*
X153797000Y-64897000D01*
X153797000Y-64917000D01*
X153543000Y-64917000D01*
X153543000Y-64897000D01*
X153523000Y-64897000D01*
X153523000Y-64643000D01*
X153543000Y-64643000D01*
X153543000Y-63493750D01*
X153797000Y-63493750D01*
X153797000Y-64643000D01*
X155346250Y-64643000D01*
X155505000Y-64484250D01*
X155505000Y-63843690D01*
X155408327Y-63610301D01*
X155229698Y-63431673D01*
X154996309Y-63335000D01*
X153955750Y-63335000D01*
X153797000Y-63493750D01*
X153543000Y-63493750D01*
X153384250Y-63335000D01*
X152343691Y-63335000D01*
X152110302Y-63431673D01*
X151931673Y-63610301D01*
X151840000Y-63831619D01*
X151840000Y-61204187D01*
X152234752Y-61204187D01*
X152452757Y-61731800D01*
X152856077Y-62135824D01*
X153383309Y-62354750D01*
X153954187Y-62355248D01*
X154481800Y-62137243D01*
X154885824Y-61733923D01*
X155104750Y-61206691D01*
X155104989Y-60931887D01*
X156045000Y-60931887D01*
X156045000Y-60988113D01*
X156154233Y-61537264D01*
X156465302Y-62002811D01*
X156930849Y-62313880D01*
X157480000Y-62423113D01*
X158029151Y-62313880D01*
X158494698Y-62002811D01*
X158805767Y-61537264D01*
X158915000Y-60988113D01*
X158915000Y-60931887D01*
X158865769Y-60684389D01*
X162096167Y-57453991D01*
X176264735Y-57453991D01*
X176497932Y-58018371D01*
X176929357Y-58450551D01*
X177493330Y-58684733D01*
X178103991Y-58685265D01*
X178668371Y-58452068D01*
X179100551Y-58020643D01*
X179334733Y-57456670D01*
X179335265Y-56846009D01*
X179102068Y-56281629D01*
X178924908Y-56104159D01*
X179059699Y-56048327D01*
X179238327Y-55869698D01*
X179335000Y-55636309D01*
X179335000Y-54895750D01*
X179176250Y-54737000D01*
X177927000Y-54737000D01*
X177927000Y-54757000D01*
X177673000Y-54757000D01*
X177673000Y-54737000D01*
X176423750Y-54737000D01*
X176265000Y-54895750D01*
X176265000Y-55636309D01*
X176361673Y-55869698D01*
X176540301Y-56048327D01*
X176674994Y-56104119D01*
X176499449Y-56279357D01*
X176265267Y-56843330D01*
X176264735Y-57453991D01*
X162096167Y-57453991D01*
X163878167Y-55671991D01*
X163942191Y-55767809D01*
X164152235Y-55908157D01*
X164400000Y-55957440D01*
X165800000Y-55957440D01*
X166047765Y-55908157D01*
X166257809Y-55767809D01*
X166398157Y-55557765D01*
X166400641Y-55545275D01*
X171964331Y-55545275D01*
X172026169Y-55781042D01*
X172527122Y-55957419D01*
X173057440Y-55928664D01*
X173413831Y-55781042D01*
X173475669Y-55545275D01*
X172720000Y-54789605D01*
X171964331Y-55545275D01*
X166400641Y-55545275D01*
X166447440Y-55310000D01*
X166447440Y-54417122D01*
X171372581Y-54417122D01*
X171401336Y-54947440D01*
X171548958Y-55303831D01*
X171784725Y-55365669D01*
X172540395Y-54610000D01*
X172899605Y-54610000D01*
X173655275Y-55365669D01*
X173891042Y-55303831D01*
X174067419Y-54802878D01*
X174038664Y-54272560D01*
X173891042Y-53916169D01*
X173655275Y-53854331D01*
X172899605Y-54610000D01*
X172540395Y-54610000D01*
X171784725Y-53854331D01*
X171548958Y-53916169D01*
X171372581Y-54417122D01*
X166447440Y-54417122D01*
X166447440Y-53910000D01*
X166400642Y-53674725D01*
X171964331Y-53674725D01*
X172720000Y-54430395D01*
X173475669Y-53674725D01*
X173451793Y-53583691D01*
X176265000Y-53583691D01*
X176265000Y-54324250D01*
X176423750Y-54483000D01*
X177673000Y-54483000D01*
X177673000Y-53233750D01*
X177927000Y-53233750D01*
X177927000Y-54483000D01*
X179176250Y-54483000D01*
X179335000Y-54324250D01*
X179335000Y-53583691D01*
X179238327Y-53350302D01*
X179059699Y-53171673D01*
X178826310Y-53075000D01*
X178085750Y-53075000D01*
X177927000Y-53233750D01*
X177673000Y-53233750D01*
X177514250Y-53075000D01*
X176773690Y-53075000D01*
X176540301Y-53171673D01*
X176361673Y-53350302D01*
X176265000Y-53583691D01*
X173451793Y-53583691D01*
X173413831Y-53438958D01*
X172912878Y-53262581D01*
X172382560Y-53291336D01*
X172026169Y-53438958D01*
X171964331Y-53674725D01*
X166400642Y-53674725D01*
X166398157Y-53662235D01*
X166257809Y-53452191D01*
X166047765Y-53311843D01*
X165800000Y-53262560D01*
X164400000Y-53262560D01*
X164152235Y-53311843D01*
X163942191Y-53452191D01*
X163801843Y-53662235D01*
X163766974Y-53837537D01*
X163529593Y-53884755D01*
X163274921Y-54054921D01*
X157774396Y-59555446D01*
X157480000Y-59496887D01*
X156930849Y-59606120D01*
X156465302Y-59917189D01*
X156154233Y-60382736D01*
X156045000Y-60931887D01*
X155104989Y-60931887D01*
X155105248Y-60635813D01*
X154887243Y-60108200D01*
X154483923Y-59704176D01*
X154417456Y-59676577D01*
X154424005Y-59673864D01*
X154498139Y-59427745D01*
X153670000Y-58599605D01*
X152841861Y-59427745D01*
X152915995Y-59673864D01*
X152922483Y-59676196D01*
X152858200Y-59702757D01*
X152454176Y-60106077D01*
X152235250Y-60633309D01*
X152234752Y-61204187D01*
X151840000Y-61204187D01*
X151840000Y-58203223D01*
X152223035Y-58203223D01*
X152250222Y-58773454D01*
X152416136Y-59174005D01*
X152662255Y-59248139D01*
X153490395Y-58420000D01*
X153849605Y-58420000D01*
X154677745Y-59248139D01*
X154923864Y-59174005D01*
X155116965Y-58636777D01*
X155089778Y-58066546D01*
X154923864Y-57665995D01*
X154677745Y-57591861D01*
X153849605Y-58420000D01*
X153490395Y-58420000D01*
X152662255Y-57591861D01*
X152416136Y-57665995D01*
X152223035Y-58203223D01*
X151840000Y-58203223D01*
X151840000Y-57412255D01*
X152841861Y-57412255D01*
X153670000Y-58240395D01*
X154498139Y-57412255D01*
X154424005Y-57166136D01*
X153886777Y-56973035D01*
X153316546Y-57000222D01*
X152915995Y-57166136D01*
X152841861Y-57412255D01*
X151840000Y-57412255D01*
X151840000Y-53624187D01*
X156044752Y-53624187D01*
X156262757Y-54151800D01*
X156666077Y-54555824D01*
X157193309Y-54774750D01*
X157764187Y-54775248D01*
X158291800Y-54557243D01*
X158695824Y-54153923D01*
X158914750Y-53626691D01*
X158914752Y-53624187D01*
X159854752Y-53624187D01*
X160072757Y-54151800D01*
X160476077Y-54555824D01*
X161003309Y-54774750D01*
X161574187Y-54775248D01*
X162101800Y-54557243D01*
X162505824Y-54153923D01*
X162724750Y-53626691D01*
X162725248Y-53055813D01*
X162507243Y-52528200D01*
X162185207Y-52205601D01*
X162604004Y-52205601D01*
X162745472Y-52508790D01*
X163481952Y-52793747D01*
X164271420Y-52775174D01*
X164914528Y-52508790D01*
X165055996Y-52205601D01*
X163830000Y-50979605D01*
X162604004Y-52205601D01*
X162185207Y-52205601D01*
X162103923Y-52124176D01*
X161576691Y-51905250D01*
X161005813Y-51904752D01*
X160478200Y-52122757D01*
X160074176Y-52526077D01*
X159855250Y-53053309D01*
X159854752Y-53624187D01*
X158914752Y-53624187D01*
X158915248Y-53055813D01*
X158697243Y-52528200D01*
X158293923Y-52124176D01*
X157766691Y-51905250D01*
X157195813Y-51904752D01*
X156668200Y-52122757D01*
X156264176Y-52526077D01*
X156045250Y-53053309D01*
X156044752Y-53624187D01*
X151840000Y-53624187D01*
X151840000Y-51600771D01*
X152252251Y-52217749D01*
X152902720Y-52652378D01*
X153670000Y-52805000D01*
X154437280Y-52652378D01*
X155087749Y-52217749D01*
X155522378Y-51567280D01*
X155675000Y-50800000D01*
X155605769Y-50451952D01*
X161836253Y-50451952D01*
X161854826Y-51241420D01*
X162121210Y-51884528D01*
X162424399Y-52025996D01*
X163650395Y-50800000D01*
X164009605Y-50800000D01*
X165235601Y-52025996D01*
X165538790Y-51884528D01*
X165823747Y-51148048D01*
X165805174Y-50358580D01*
X165538790Y-49715472D01*
X165235601Y-49574004D01*
X164009605Y-50800000D01*
X163650395Y-50800000D01*
X162424399Y-49574004D01*
X162121210Y-49715472D01*
X161836253Y-50451952D01*
X155605769Y-50451952D01*
X155522378Y-50032720D01*
X155087749Y-49382251D01*
X154470771Y-48970000D01*
X163038099Y-48970000D01*
X162745472Y-49091210D01*
M02*
