G04 #@! TF.GenerationSoftware,KiCad,Pcbnew,(2017-10-17 revision 537804b)-master*
G04 #@! TF.CreationDate,2017-12-28T11:37:30+01:00*
G04 #@! TF.ProjectId,MonoStable555,4D6F6E6F537461626C653535352E6B69,rev?*
G04 #@! TF.SameCoordinates,Original*
G04 #@! TF.FileFunction,Soldermask,Bot*
G04 #@! TF.FilePolarity,Negative*
%FSLAX46Y46*%
G04 Gerber Fmt 4.6, Leading zero omitted, Abs format (unit mm)*
G04 Created by KiCad (PCBNEW (2017-10-17 revision 537804b)-master) date 2017 December 28, Thursday 11:37:30*
%MOMM*%
%LPD*%
G01*
G04 APERTURE LIST*
%ADD10C,1.800000*%
%ADD11R,1.800000X1.800000*%
%ADD12C,3.100020*%
%ADD13C,2.000000*%
%ADD14R,2.000000X2.000000*%
%ADD15C,2.200000*%
%ADD16R,2.200000X2.200000*%
%ADD17O,2.100000X2.100000*%
%ADD18R,2.100000X2.100000*%
%ADD19O,2.000000X2.000000*%
%ADD20C,2.740000*%
%ADD21O,2.800000X2.000000*%
%ADD22R,2.800000X2.000000*%
%ADD23O,2.200000X2.200000*%
G04 APERTURE END LIST*
D10*
X172720000Y-62230000D03*
X172730000Y-72400000D03*
X172730000Y-67320000D03*
X165100000Y-62230000D03*
X165100000Y-72390000D03*
X165100000Y-67300000D03*
X172720000Y-54610000D03*
D11*
X165100000Y-54610000D03*
D12*
X163830000Y-50800000D03*
X168910000Y-50800000D03*
D13*
X159980000Y-81915000D03*
D14*
X157480000Y-81915000D03*
D13*
X153670000Y-60920000D03*
X153670000Y-58420000D03*
D15*
X177800000Y-57150000D03*
D16*
X177800000Y-54610000D03*
D17*
X177800000Y-81280000D03*
X177800000Y-78740000D03*
D18*
X177800000Y-76200000D03*
X177800000Y-67310000D03*
D17*
X177800000Y-69850000D03*
X177800000Y-72390000D03*
D13*
X157480000Y-53340000D03*
D19*
X157480000Y-60960000D03*
D20*
X173990000Y-78105000D03*
X163990000Y-80605000D03*
X173990000Y-83105000D03*
D17*
X177800000Y-60960000D03*
D18*
X177800000Y-63500000D03*
D21*
X161290000Y-64770000D03*
X153670000Y-72390000D03*
X161290000Y-67310000D03*
X153670000Y-69850000D03*
X161290000Y-69850000D03*
X153670000Y-67310000D03*
X161290000Y-72390000D03*
D22*
X153670000Y-64770000D03*
D23*
X161290000Y-76200000D03*
D16*
X153670000Y-76200000D03*
D19*
X161290000Y-60960000D03*
D13*
X161290000Y-53340000D03*
M02*
