G04 #@! TF.GenerationSoftware,KiCad,Pcbnew,(2017-10-17 revision 537804b)-master*
G04 #@! TF.CreationDate,2017-12-28T11:37:30+01:00*
G04 #@! TF.ProjectId,MonoStable555,4D6F6E6F537461626C653535352E6B69,rev?*
G04 #@! TF.SameCoordinates,Original*
G04 #@! TF.FileFunction,Copper,L2,Bot,Signal*
G04 #@! TF.FilePolarity,Positive*
%FSLAX46Y46*%
G04 Gerber Fmt 4.6, Leading zero omitted, Abs format (unit mm)*
G04 Created by KiCad (PCBNEW (2017-10-17 revision 537804b)-master) date 2017 December 28, Thursday 11:37:30*
%MOMM*%
%LPD*%
G01*
G04 APERTURE LIST*
%ADD10C,1.400000*%
%ADD11R,1.400000X1.400000*%
%ADD12C,2.700020*%
%ADD13C,1.600000*%
%ADD14R,1.600000X1.600000*%
%ADD15C,1.800000*%
%ADD16R,1.800000X1.800000*%
%ADD17O,1.700000X1.700000*%
%ADD18R,1.700000X1.700000*%
%ADD19O,1.600000X1.600000*%
%ADD20C,2.340000*%
%ADD21O,2.400000X1.600000*%
%ADD22R,2.400000X1.600000*%
%ADD23O,1.800000X1.800000*%
%ADD24C,0.300000*%
%ADD25C,0.254000*%
G04 APERTURE END LIST*
D10*
X172720000Y-62230000D03*
X172730000Y-72400000D03*
X172730000Y-67320000D03*
X165100000Y-62230000D03*
X165100000Y-72390000D03*
X165100000Y-67300000D03*
X172720000Y-54610000D03*
D11*
X165100000Y-54610000D03*
D12*
X163830000Y-50800000D03*
X168910000Y-50800000D03*
D13*
X159980000Y-81915000D03*
D14*
X157480000Y-81915000D03*
D13*
X153670000Y-60920000D03*
X153670000Y-58420000D03*
D15*
X177800000Y-57150000D03*
D16*
X177800000Y-54610000D03*
D17*
X177800000Y-81280000D03*
X177800000Y-78740000D03*
D18*
X177800000Y-76200000D03*
X177800000Y-67310000D03*
D17*
X177800000Y-69850000D03*
X177800000Y-72390000D03*
D13*
X157480000Y-53340000D03*
D19*
X157480000Y-60960000D03*
D20*
X173990000Y-78105000D03*
X163990000Y-80605000D03*
X173990000Y-83105000D03*
D17*
X177800000Y-60960000D03*
D18*
X177800000Y-63500000D03*
D21*
X161290000Y-64770000D03*
X153670000Y-72390000D03*
X161290000Y-67310000D03*
X153670000Y-69850000D03*
X161290000Y-69850000D03*
X153670000Y-67310000D03*
X161290000Y-72390000D03*
D22*
X153670000Y-64770000D03*
D23*
X161290000Y-76200000D03*
D16*
X153670000Y-76200000D03*
D19*
X161290000Y-60960000D03*
D13*
X161290000Y-53340000D03*
D24*
X161290000Y-69850000D02*
X161690000Y-69850000D01*
X161690000Y-69850000D02*
X163990000Y-72150000D01*
X163990000Y-72150000D02*
X163990000Y-78950371D01*
X163990000Y-78950371D02*
X163990000Y-80605000D01*
X161290000Y-67310000D02*
X161290000Y-69850000D01*
X158790000Y-80605000D02*
X157480000Y-81915000D01*
X163990000Y-80605000D02*
X158790000Y-80605000D01*
X153670000Y-60920000D02*
X154780001Y-59809999D01*
X154780001Y-59809999D02*
X158032001Y-59809999D01*
X158032001Y-59809999D02*
X159739990Y-61517988D01*
X159739990Y-61517988D02*
X159739990Y-71239990D01*
X159739990Y-71239990D02*
X160890000Y-72390000D01*
X160890000Y-72390000D02*
X161290000Y-72390000D01*
X157480000Y-53340000D02*
X162560000Y-58420000D01*
X162560000Y-58420000D02*
X175895000Y-58420000D01*
X175895000Y-58420000D02*
X177165000Y-57150000D01*
X177165000Y-57150000D02*
X177800000Y-57150000D01*
X154070000Y-69850000D02*
X156210000Y-67710000D01*
X156210000Y-67710000D02*
X156210000Y-63361370D01*
X156210000Y-63361370D02*
X157480000Y-62091370D01*
X157480000Y-62091370D02*
X157480000Y-60960000D01*
X153670000Y-76200000D02*
X154870000Y-76200000D01*
X154870000Y-76200000D02*
X156210000Y-74860000D01*
X156210000Y-74860000D02*
X156210000Y-71755000D01*
X156210000Y-71755000D02*
X154305000Y-69850000D01*
X154305000Y-69850000D02*
X154070000Y-69850000D01*
X153670000Y-69850000D02*
X154070000Y-69850000D01*
X165100000Y-72390000D02*
X165100000Y-76200000D01*
X165100000Y-76200000D02*
X170180000Y-81280000D01*
X170180000Y-81280000D02*
X176597919Y-81280000D01*
X176597919Y-81280000D02*
X177800000Y-81280000D01*
X177800000Y-69850000D02*
X175260000Y-69850000D01*
X175260000Y-69850000D02*
X172730000Y-67320000D01*
X168910000Y-79302878D02*
X168910000Y-71110000D01*
X165799999Y-67999999D02*
X165100000Y-67300000D01*
X168910000Y-71110000D02*
X165799999Y-67999999D01*
X175760011Y-80779989D02*
X170387111Y-80779989D01*
X177800000Y-78740000D02*
X175760011Y-80779989D01*
X170387111Y-80779989D02*
X168910000Y-79302878D01*
X177800000Y-76200000D02*
X170180000Y-76200000D01*
X165799999Y-62929999D02*
X165100000Y-62230000D01*
X170180000Y-76200000D02*
X169410011Y-75430011D01*
X169410011Y-75430011D02*
X169410011Y-66540011D01*
X169410011Y-66540011D02*
X165799999Y-62929999D01*
X177800000Y-67310000D02*
X175260000Y-67310000D01*
X175260000Y-67310000D02*
X172720000Y-64770000D01*
X172720000Y-64770000D02*
X172720000Y-62230000D01*
X172730000Y-72400000D02*
X177790000Y-72400000D01*
X177790000Y-72400000D02*
X177800000Y-72390000D01*
X161290000Y-60960000D02*
X161290000Y-60325000D01*
X161290000Y-60325000D02*
X162560000Y-59055000D01*
X162560000Y-59055000D02*
X175895000Y-59055000D01*
X175895000Y-59055000D02*
X177800000Y-60960000D01*
D25*
G36*
X162707051Y-49116209D02*
X162148171Y-49674114D01*
X161845335Y-50403425D01*
X161844646Y-51193111D01*
X162146209Y-51922949D01*
X162704114Y-52481829D01*
X163433425Y-52784665D01*
X164223111Y-52785354D01*
X164952949Y-52483791D01*
X165231625Y-52205601D01*
X167684004Y-52205601D01*
X167825472Y-52508790D01*
X168561952Y-52793747D01*
X169351420Y-52775174D01*
X169994528Y-52508790D01*
X170135996Y-52205601D01*
X168910000Y-50979605D01*
X167684004Y-52205601D01*
X165231625Y-52205601D01*
X165511829Y-51925886D01*
X165814665Y-51196575D01*
X165815314Y-50451952D01*
X166916253Y-50451952D01*
X166934826Y-51241420D01*
X167201210Y-51884528D01*
X167504399Y-52025996D01*
X168730395Y-50800000D01*
X169089605Y-50800000D01*
X170315601Y-52025996D01*
X170618790Y-51884528D01*
X170903747Y-51148048D01*
X170885174Y-50358580D01*
X170618790Y-49715472D01*
X170315601Y-49574004D01*
X169089605Y-50800000D01*
X168730395Y-50800000D01*
X167504399Y-49574004D01*
X167201210Y-49715472D01*
X166916253Y-50451952D01*
X165815314Y-50451952D01*
X165815354Y-50406889D01*
X165513791Y-49677051D01*
X164955886Y-49118171D01*
X164599050Y-48970000D01*
X168118099Y-48970000D01*
X167825472Y-49091210D01*
X167684004Y-49394399D01*
X168910000Y-50620395D01*
X170135996Y-49394399D01*
X169994528Y-49091210D01*
X169681257Y-48970000D01*
X178269229Y-48970000D01*
X177652251Y-49382251D01*
X177217622Y-50032720D01*
X177065000Y-50800000D01*
X177217622Y-51567280D01*
X177652251Y-52217749D01*
X178302720Y-52652378D01*
X179070000Y-52805000D01*
X179837280Y-52652378D01*
X180487749Y-52217749D01*
X180900000Y-51600771D01*
X180900000Y-84289229D01*
X180487749Y-83672251D01*
X179837280Y-83237622D01*
X179070000Y-83085000D01*
X178302720Y-83237622D01*
X177652251Y-83672251D01*
X177217622Y-84322720D01*
X177065000Y-85090000D01*
X177217622Y-85857280D01*
X177652251Y-86507749D01*
X178269229Y-86920000D01*
X154470771Y-86920000D01*
X155087749Y-86507749D01*
X155522378Y-85857280D01*
X155675000Y-85090000D01*
X155533869Y-84380486D01*
X172894120Y-84380486D01*
X173013586Y-84664984D01*
X173684890Y-84919894D01*
X174402646Y-84898504D01*
X174966414Y-84664984D01*
X175085880Y-84380486D01*
X173990000Y-83284605D01*
X172894120Y-84380486D01*
X155533869Y-84380486D01*
X155522378Y-84322720D01*
X155087749Y-83672251D01*
X154437280Y-83237622D01*
X153670000Y-83085000D01*
X152902720Y-83237622D01*
X152252251Y-83672251D01*
X151840000Y-84289229D01*
X151840000Y-72517002D01*
X152000084Y-72517002D01*
X151878096Y-72739039D01*
X151895633Y-72821819D01*
X152165500Y-73314896D01*
X152603517Y-73667166D01*
X153143000Y-73825000D01*
X153543000Y-73825000D01*
X153543000Y-72517000D01*
X153523000Y-72517000D01*
X153523000Y-72263000D01*
X153543000Y-72263000D01*
X153543000Y-72243000D01*
X153797000Y-72243000D01*
X153797000Y-72263000D01*
X153817000Y-72263000D01*
X153817000Y-72517000D01*
X153797000Y-72517000D01*
X153797000Y-73825000D01*
X154197000Y-73825000D01*
X154736483Y-73667166D01*
X155174500Y-73314896D01*
X155425000Y-72857205D01*
X155425000Y-74534842D01*
X155063795Y-74896047D01*
X155027809Y-74842191D01*
X154817765Y-74701843D01*
X154570000Y-74652560D01*
X152770000Y-74652560D01*
X152522235Y-74701843D01*
X152312191Y-74842191D01*
X152171843Y-75052235D01*
X152122560Y-75300000D01*
X152122560Y-77100000D01*
X152171843Y-77347765D01*
X152312191Y-77557809D01*
X152522235Y-77698157D01*
X152770000Y-77747440D01*
X154570000Y-77747440D01*
X154817765Y-77698157D01*
X155027809Y-77557809D01*
X155168157Y-77347765D01*
X155217440Y-77100000D01*
X155217440Y-76893819D01*
X155425079Y-76755079D01*
X155980158Y-76200000D01*
X159724928Y-76200000D01*
X159841773Y-76787419D01*
X160174519Y-77285409D01*
X160672509Y-77618155D01*
X161259928Y-77735000D01*
X161320072Y-77735000D01*
X161907491Y-77618155D01*
X162405481Y-77285409D01*
X162738227Y-76787419D01*
X162855072Y-76200000D01*
X162738227Y-75612581D01*
X162405481Y-75114591D01*
X161907491Y-74781845D01*
X161320072Y-74665000D01*
X161259928Y-74665000D01*
X160672509Y-74781845D01*
X160174519Y-75114591D01*
X159841773Y-75612581D01*
X159724928Y-76200000D01*
X155980158Y-76200000D01*
X156765079Y-75415079D01*
X156935245Y-75160407D01*
X156995000Y-74860000D01*
X156995000Y-71755000D01*
X156935245Y-71454594D01*
X156765079Y-71199921D01*
X155520080Y-69954922D01*
X155540950Y-69850000D01*
X155481091Y-69549067D01*
X156765079Y-68265079D01*
X156935245Y-68010407D01*
X156995000Y-67710000D01*
X156995000Y-63686528D01*
X158035079Y-62646449D01*
X158205245Y-62391777D01*
X158250107Y-62166242D01*
X158494698Y-62002811D01*
X158743018Y-61631174D01*
X158954990Y-61843146D01*
X158954990Y-71239990D01*
X159014745Y-71540397D01*
X159184911Y-71795069D01*
X159478909Y-72089067D01*
X159419050Y-72390000D01*
X159528283Y-72939151D01*
X159839352Y-73404698D01*
X160304899Y-73715767D01*
X160854050Y-73825000D01*
X161725950Y-73825000D01*
X162275101Y-73715767D01*
X162740648Y-73404698D01*
X163051717Y-72939151D01*
X163154130Y-72424288D01*
X163205000Y-72475158D01*
X163205000Y-78976342D01*
X162968885Y-79073903D01*
X162460688Y-79581215D01*
X162361536Y-79820000D01*
X158790000Y-79820000D01*
X158489594Y-79879755D01*
X158234921Y-80049921D01*
X157817282Y-80467560D01*
X156680000Y-80467560D01*
X156432235Y-80516843D01*
X156222191Y-80657191D01*
X156081843Y-80867235D01*
X156032560Y-81115000D01*
X156032560Y-82715000D01*
X156081843Y-82962765D01*
X156222191Y-83172809D01*
X156432235Y-83313157D01*
X156680000Y-83362440D01*
X158280000Y-83362440D01*
X158527765Y-83313157D01*
X158737809Y-83172809D01*
X158878157Y-82962765D01*
X158898121Y-82862400D01*
X159166077Y-83130824D01*
X159693309Y-83349750D01*
X160264187Y-83350248D01*
X160791800Y-83132243D01*
X161195824Y-82728923D01*
X161414750Y-82201691D01*
X161415248Y-81630813D01*
X161315746Y-81390000D01*
X162361342Y-81390000D01*
X162458903Y-81626115D01*
X162966215Y-82134312D01*
X163629388Y-82409686D01*
X164347462Y-82410313D01*
X165011115Y-82136097D01*
X165519312Y-81628785D01*
X165794686Y-80965612D01*
X165795313Y-80247538D01*
X165521097Y-79583885D01*
X165013785Y-79075688D01*
X164775000Y-78976536D01*
X164775000Y-76985158D01*
X169624921Y-81835079D01*
X169879594Y-82005245D01*
X170180000Y-82065000D01*
X172581441Y-82065000D01*
X172430016Y-82128586D01*
X172175106Y-82799890D01*
X172196496Y-83517646D01*
X172430016Y-84081414D01*
X172714514Y-84200880D01*
X173810395Y-83105000D01*
X173796252Y-83090858D01*
X173975858Y-82911252D01*
X173990000Y-82925395D01*
X174004142Y-82911252D01*
X174183748Y-83090858D01*
X174169605Y-83105000D01*
X175265486Y-84200880D01*
X175549984Y-84081414D01*
X175804894Y-83410110D01*
X175783504Y-82692354D01*
X175549984Y-82128586D01*
X175398559Y-82065000D01*
X176543750Y-82065000D01*
X176720853Y-82330054D01*
X177202622Y-82651961D01*
X177770907Y-82765000D01*
X177829093Y-82765000D01*
X178397378Y-82651961D01*
X178879147Y-82330054D01*
X179201054Y-81848285D01*
X179314093Y-81280000D01*
X179201054Y-80711715D01*
X178879147Y-80229946D01*
X178549974Y-80010000D01*
X178879147Y-79790054D01*
X179201054Y-79308285D01*
X179314093Y-78740000D01*
X179201054Y-78171715D01*
X178879147Y-77689946D01*
X178835223Y-77660597D01*
X178897765Y-77648157D01*
X179107809Y-77507809D01*
X179248157Y-77297765D01*
X179297440Y-77050000D01*
X179297440Y-75350000D01*
X179248157Y-75102235D01*
X179107809Y-74892191D01*
X178897765Y-74751843D01*
X178650000Y-74702560D01*
X176950000Y-74702560D01*
X176702235Y-74751843D01*
X176492191Y-74892191D01*
X176351843Y-75102235D01*
X176302560Y-75350000D01*
X176302560Y-75415000D01*
X170505158Y-75415000D01*
X170195011Y-75104853D01*
X170195011Y-66540011D01*
X170135256Y-66239605D01*
X169965090Y-65984932D01*
X166474541Y-62494383D01*
X171384769Y-62494383D01*
X171587582Y-62985229D01*
X171935000Y-63333253D01*
X171935000Y-64770000D01*
X171994755Y-65070407D01*
X172164921Y-65325079D01*
X172824924Y-65985082D01*
X172465617Y-65984769D01*
X171974771Y-66187582D01*
X171598902Y-66562796D01*
X171395232Y-67053287D01*
X171394769Y-67584383D01*
X171597582Y-68075229D01*
X171972796Y-68451098D01*
X172463287Y-68654768D01*
X172955039Y-68655197D01*
X174704921Y-70405079D01*
X174959593Y-70575245D01*
X175260000Y-70635000D01*
X176543750Y-70635000D01*
X176720853Y-70900054D01*
X177050026Y-71120000D01*
X176720853Y-71339946D01*
X176537068Y-71615000D01*
X173832699Y-71615000D01*
X173487204Y-71268902D01*
X172996713Y-71065232D01*
X172465617Y-71064769D01*
X171974771Y-71267582D01*
X171598902Y-71642796D01*
X171395232Y-72133287D01*
X171394769Y-72664383D01*
X171597582Y-73155229D01*
X171972796Y-73531098D01*
X172463287Y-73734768D01*
X172994383Y-73735231D01*
X173485229Y-73532418D01*
X173833253Y-73185000D01*
X176550432Y-73185000D01*
X176720853Y-73440054D01*
X177202622Y-73761961D01*
X177770907Y-73875000D01*
X177829093Y-73875000D01*
X178397378Y-73761961D01*
X178879147Y-73440054D01*
X179201054Y-72958285D01*
X179314093Y-72390000D01*
X179201054Y-71821715D01*
X178879147Y-71339946D01*
X178549974Y-71120000D01*
X178879147Y-70900054D01*
X179201054Y-70418285D01*
X179314093Y-69850000D01*
X179201054Y-69281715D01*
X178879147Y-68799946D01*
X178835223Y-68770597D01*
X178897765Y-68758157D01*
X179107809Y-68617809D01*
X179248157Y-68407765D01*
X179297440Y-68160000D01*
X179297440Y-66460000D01*
X179248157Y-66212235D01*
X179107809Y-66002191D01*
X178897765Y-65861843D01*
X178650000Y-65812560D01*
X176950000Y-65812560D01*
X176702235Y-65861843D01*
X176492191Y-66002191D01*
X176351843Y-66212235D01*
X176302560Y-66460000D01*
X176302560Y-66525000D01*
X175585158Y-66525000D01*
X173505000Y-64444842D01*
X173505000Y-63332699D01*
X173851098Y-62987204D01*
X174054768Y-62496713D01*
X174055231Y-61965617D01*
X173852418Y-61474771D01*
X173477204Y-61098902D01*
X172986713Y-60895232D01*
X172455617Y-60894769D01*
X171964771Y-61097582D01*
X171588902Y-61472796D01*
X171385232Y-61963287D01*
X171384769Y-62494383D01*
X166474541Y-62494383D01*
X166434805Y-62454647D01*
X166435231Y-61965617D01*
X166232418Y-61474771D01*
X165857204Y-61098902D01*
X165366713Y-60895232D01*
X164835617Y-60894769D01*
X164344771Y-61097582D01*
X163968902Y-61472796D01*
X163765232Y-61963287D01*
X163764769Y-62494383D01*
X163967582Y-62985229D01*
X164342796Y-63361098D01*
X164833287Y-63564768D01*
X165325039Y-63565197D01*
X168625011Y-66865169D01*
X168625011Y-69714853D01*
X166434805Y-67524647D01*
X166435231Y-67035617D01*
X166232418Y-66544771D01*
X165857204Y-66168902D01*
X165366713Y-65965232D01*
X164835617Y-65964769D01*
X164344771Y-66167582D01*
X163968902Y-66542796D01*
X163765232Y-67033287D01*
X163764769Y-67564383D01*
X163967582Y-68055229D01*
X164342796Y-68431098D01*
X164833287Y-68634768D01*
X165325039Y-68635197D01*
X168125000Y-71435158D01*
X168125000Y-78114842D01*
X165885000Y-75874842D01*
X165885000Y-73492699D01*
X166231098Y-73147204D01*
X166434768Y-72656713D01*
X166435231Y-72125617D01*
X166232418Y-71634771D01*
X165857204Y-71258902D01*
X165366713Y-71055232D01*
X164835617Y-71054769D01*
X164344771Y-71257582D01*
X164276196Y-71326038D01*
X163101091Y-70150933D01*
X163160950Y-69850000D01*
X163051717Y-69300849D01*
X162740648Y-68835302D01*
X162358562Y-68580000D01*
X162740648Y-68324698D01*
X163051717Y-67859151D01*
X163160950Y-67310000D01*
X163051717Y-66760849D01*
X162740648Y-66295302D01*
X162362293Y-66042493D01*
X162794500Y-65694896D01*
X163064367Y-65201819D01*
X163081904Y-65119039D01*
X162959915Y-64897000D01*
X161417000Y-64897000D01*
X161417000Y-64917000D01*
X161163000Y-64917000D01*
X161163000Y-64897000D01*
X161143000Y-64897000D01*
X161143000Y-64643000D01*
X161163000Y-64643000D01*
X161163000Y-63335000D01*
X161417000Y-63335000D01*
X161417000Y-64643000D01*
X162959915Y-64643000D01*
X163081904Y-64420961D01*
X163064367Y-64338181D01*
X162794500Y-63845104D01*
X162356483Y-63492834D01*
X161817000Y-63335000D01*
X161417000Y-63335000D01*
X161163000Y-63335000D01*
X160763000Y-63335000D01*
X160524990Y-63404633D01*
X160524990Y-62169647D01*
X160740849Y-62313880D01*
X161290000Y-62423113D01*
X161839151Y-62313880D01*
X162304698Y-62002811D01*
X162615767Y-61537264D01*
X162725000Y-60988113D01*
X162725000Y-60931887D01*
X162615767Y-60382736D01*
X162506280Y-60218878D01*
X162885158Y-59840000D01*
X175569842Y-59840000D01*
X176372363Y-60642521D01*
X176315000Y-60930907D01*
X176315000Y-60989093D01*
X176428039Y-61557378D01*
X176749946Y-62039147D01*
X176753643Y-62041617D01*
X176702235Y-62051843D01*
X176492191Y-62192191D01*
X176351843Y-62402235D01*
X176302560Y-62650000D01*
X176302560Y-64350000D01*
X176351843Y-64597765D01*
X176492191Y-64807809D01*
X176702235Y-64948157D01*
X176950000Y-64997440D01*
X178650000Y-64997440D01*
X178897765Y-64948157D01*
X179107809Y-64807809D01*
X179248157Y-64597765D01*
X179297440Y-64350000D01*
X179297440Y-62650000D01*
X179248157Y-62402235D01*
X179107809Y-62192191D01*
X178897765Y-62051843D01*
X178846357Y-62041617D01*
X178850054Y-62039147D01*
X179171961Y-61557378D01*
X179285000Y-60989093D01*
X179285000Y-60930907D01*
X179171961Y-60362622D01*
X178850054Y-59880853D01*
X178368285Y-59558946D01*
X177800000Y-59445907D01*
X177463082Y-59512924D01*
X176687658Y-58737500D01*
X176961330Y-58463828D01*
X177493330Y-58684733D01*
X178103991Y-58685265D01*
X178668371Y-58452068D01*
X179100551Y-58020643D01*
X179334733Y-57456670D01*
X179335265Y-56846009D01*
X179102068Y-56281629D01*
X178932025Y-56111288D01*
X178947765Y-56108157D01*
X179157809Y-55967809D01*
X179298157Y-55757765D01*
X179347440Y-55510000D01*
X179347440Y-53710000D01*
X179298157Y-53462235D01*
X179157809Y-53252191D01*
X178947765Y-53111843D01*
X178700000Y-53062560D01*
X176900000Y-53062560D01*
X176652235Y-53111843D01*
X176442191Y-53252191D01*
X176301843Y-53462235D01*
X176252560Y-53710000D01*
X176252560Y-55510000D01*
X176301843Y-55757765D01*
X176442191Y-55967809D01*
X176652235Y-56108157D01*
X176667839Y-56111261D01*
X176499449Y-56279357D01*
X176265267Y-56843330D01*
X176265183Y-56939659D01*
X175569842Y-57635000D01*
X162885158Y-57635000D01*
X159597903Y-54347745D01*
X160461861Y-54347745D01*
X160535995Y-54593864D01*
X161073223Y-54786965D01*
X161643454Y-54759778D01*
X162044005Y-54593864D01*
X162118139Y-54347745D01*
X161290000Y-53519605D01*
X160461861Y-54347745D01*
X159597903Y-54347745D01*
X158903630Y-53653472D01*
X158914750Y-53626691D01*
X158915189Y-53123223D01*
X159843035Y-53123223D01*
X159870222Y-53693454D01*
X160036136Y-54094005D01*
X160282255Y-54168139D01*
X161110395Y-53340000D01*
X161469605Y-53340000D01*
X162297745Y-54168139D01*
X162543864Y-54094005D01*
X162610002Y-53910000D01*
X163752560Y-53910000D01*
X163752560Y-55310000D01*
X163801843Y-55557765D01*
X163942191Y-55767809D01*
X164152235Y-55908157D01*
X164400000Y-55957440D01*
X165800000Y-55957440D01*
X166047765Y-55908157D01*
X166257809Y-55767809D01*
X166398157Y-55557765D01*
X166447440Y-55310000D01*
X166447440Y-54874383D01*
X171384769Y-54874383D01*
X171587582Y-55365229D01*
X171962796Y-55741098D01*
X172453287Y-55944768D01*
X172984383Y-55945231D01*
X173475229Y-55742418D01*
X173851098Y-55367204D01*
X174054768Y-54876713D01*
X174055231Y-54345617D01*
X173852418Y-53854771D01*
X173477204Y-53478902D01*
X172986713Y-53275232D01*
X172455617Y-53274769D01*
X171964771Y-53477582D01*
X171588902Y-53852796D01*
X171385232Y-54343287D01*
X171384769Y-54874383D01*
X166447440Y-54874383D01*
X166447440Y-53910000D01*
X166398157Y-53662235D01*
X166257809Y-53452191D01*
X166047765Y-53311843D01*
X165800000Y-53262560D01*
X164400000Y-53262560D01*
X164152235Y-53311843D01*
X163942191Y-53452191D01*
X163801843Y-53662235D01*
X163752560Y-53910000D01*
X162610002Y-53910000D01*
X162736965Y-53556777D01*
X162709778Y-52986546D01*
X162543864Y-52585995D01*
X162297745Y-52511861D01*
X161469605Y-53340000D01*
X161110395Y-53340000D01*
X160282255Y-52511861D01*
X160036136Y-52585995D01*
X159843035Y-53123223D01*
X158915189Y-53123223D01*
X158915248Y-53055813D01*
X158697243Y-52528200D01*
X158501640Y-52332255D01*
X160461861Y-52332255D01*
X161290000Y-53160395D01*
X162118139Y-52332255D01*
X162044005Y-52086136D01*
X161506777Y-51893035D01*
X160936546Y-51920222D01*
X160535995Y-52086136D01*
X160461861Y-52332255D01*
X158501640Y-52332255D01*
X158293923Y-52124176D01*
X157766691Y-51905250D01*
X157195813Y-51904752D01*
X156668200Y-52122757D01*
X156264176Y-52526077D01*
X156045250Y-53053309D01*
X156044752Y-53624187D01*
X156262757Y-54151800D01*
X156666077Y-54555824D01*
X157193309Y-54774750D01*
X157764187Y-54775248D01*
X157793131Y-54763289D01*
X161767342Y-58737500D01*
X160937922Y-59566920D01*
X160740849Y-59606120D01*
X160275302Y-59917189D01*
X159964233Y-60382736D01*
X159922865Y-60590705D01*
X158587080Y-59254920D01*
X158332408Y-59084754D01*
X158032001Y-59024999D01*
X154972577Y-59024999D01*
X155104750Y-58706691D01*
X155105248Y-58135813D01*
X154887243Y-57608200D01*
X154483923Y-57204176D01*
X153956691Y-56985250D01*
X153385813Y-56984752D01*
X152858200Y-57202757D01*
X152454176Y-57606077D01*
X152235250Y-58133309D01*
X152234752Y-58704187D01*
X152452757Y-59231800D01*
X152856077Y-59635824D01*
X152937931Y-59669813D01*
X152858200Y-59702757D01*
X152454176Y-60106077D01*
X152235250Y-60633309D01*
X152234752Y-61204187D01*
X152452757Y-61731800D01*
X152856077Y-62135824D01*
X153383309Y-62354750D01*
X153954187Y-62355248D01*
X154481800Y-62137243D01*
X154885824Y-61733923D01*
X155104750Y-61206691D01*
X155105248Y-60635813D01*
X155093288Y-60606869D01*
X155105158Y-60594999D01*
X156112011Y-60594999D01*
X156045000Y-60931887D01*
X156045000Y-60988113D01*
X156154233Y-61537264D01*
X156462538Y-61998674D01*
X155654921Y-62806291D01*
X155484755Y-63060963D01*
X155484755Y-63060964D01*
X155425000Y-63361370D01*
X155425000Y-63657646D01*
X155327809Y-63512191D01*
X155117765Y-63371843D01*
X154870000Y-63322560D01*
X152470000Y-63322560D01*
X152222235Y-63371843D01*
X152012191Y-63512191D01*
X151871843Y-63722235D01*
X151840000Y-63882322D01*
X151840000Y-51600771D01*
X152252251Y-52217749D01*
X152902720Y-52652378D01*
X153670000Y-52805000D01*
X154437280Y-52652378D01*
X155087749Y-52217749D01*
X155522378Y-51567280D01*
X155675000Y-50800000D01*
X155522378Y-50032720D01*
X155087749Y-49382251D01*
X154470771Y-48970000D01*
X163060904Y-48970000D01*
X162707051Y-49116209D01*
X162707051Y-49116209D01*
G37*
X162707051Y-49116209D02*
X162148171Y-49674114D01*
X161845335Y-50403425D01*
X161844646Y-51193111D01*
X162146209Y-51922949D01*
X162704114Y-52481829D01*
X163433425Y-52784665D01*
X164223111Y-52785354D01*
X164952949Y-52483791D01*
X165231625Y-52205601D01*
X167684004Y-52205601D01*
X167825472Y-52508790D01*
X168561952Y-52793747D01*
X169351420Y-52775174D01*
X169994528Y-52508790D01*
X170135996Y-52205601D01*
X168910000Y-50979605D01*
X167684004Y-52205601D01*
X165231625Y-52205601D01*
X165511829Y-51925886D01*
X165814665Y-51196575D01*
X165815314Y-50451952D01*
X166916253Y-50451952D01*
X166934826Y-51241420D01*
X167201210Y-51884528D01*
X167504399Y-52025996D01*
X168730395Y-50800000D01*
X169089605Y-50800000D01*
X170315601Y-52025996D01*
X170618790Y-51884528D01*
X170903747Y-51148048D01*
X170885174Y-50358580D01*
X170618790Y-49715472D01*
X170315601Y-49574004D01*
X169089605Y-50800000D01*
X168730395Y-50800000D01*
X167504399Y-49574004D01*
X167201210Y-49715472D01*
X166916253Y-50451952D01*
X165815314Y-50451952D01*
X165815354Y-50406889D01*
X165513791Y-49677051D01*
X164955886Y-49118171D01*
X164599050Y-48970000D01*
X168118099Y-48970000D01*
X167825472Y-49091210D01*
X167684004Y-49394399D01*
X168910000Y-50620395D01*
X170135996Y-49394399D01*
X169994528Y-49091210D01*
X169681257Y-48970000D01*
X178269229Y-48970000D01*
X177652251Y-49382251D01*
X177217622Y-50032720D01*
X177065000Y-50800000D01*
X177217622Y-51567280D01*
X177652251Y-52217749D01*
X178302720Y-52652378D01*
X179070000Y-52805000D01*
X179837280Y-52652378D01*
X180487749Y-52217749D01*
X180900000Y-51600771D01*
X180900000Y-84289229D01*
X180487749Y-83672251D01*
X179837280Y-83237622D01*
X179070000Y-83085000D01*
X178302720Y-83237622D01*
X177652251Y-83672251D01*
X177217622Y-84322720D01*
X177065000Y-85090000D01*
X177217622Y-85857280D01*
X177652251Y-86507749D01*
X178269229Y-86920000D01*
X154470771Y-86920000D01*
X155087749Y-86507749D01*
X155522378Y-85857280D01*
X155675000Y-85090000D01*
X155533869Y-84380486D01*
X172894120Y-84380486D01*
X173013586Y-84664984D01*
X173684890Y-84919894D01*
X174402646Y-84898504D01*
X174966414Y-84664984D01*
X175085880Y-84380486D01*
X173990000Y-83284605D01*
X172894120Y-84380486D01*
X155533869Y-84380486D01*
X155522378Y-84322720D01*
X155087749Y-83672251D01*
X154437280Y-83237622D01*
X153670000Y-83085000D01*
X152902720Y-83237622D01*
X152252251Y-83672251D01*
X151840000Y-84289229D01*
X151840000Y-72517002D01*
X152000084Y-72517002D01*
X151878096Y-72739039D01*
X151895633Y-72821819D01*
X152165500Y-73314896D01*
X152603517Y-73667166D01*
X153143000Y-73825000D01*
X153543000Y-73825000D01*
X153543000Y-72517000D01*
X153523000Y-72517000D01*
X153523000Y-72263000D01*
X153543000Y-72263000D01*
X153543000Y-72243000D01*
X153797000Y-72243000D01*
X153797000Y-72263000D01*
X153817000Y-72263000D01*
X153817000Y-72517000D01*
X153797000Y-72517000D01*
X153797000Y-73825000D01*
X154197000Y-73825000D01*
X154736483Y-73667166D01*
X155174500Y-73314896D01*
X155425000Y-72857205D01*
X155425000Y-74534842D01*
X155063795Y-74896047D01*
X155027809Y-74842191D01*
X154817765Y-74701843D01*
X154570000Y-74652560D01*
X152770000Y-74652560D01*
X152522235Y-74701843D01*
X152312191Y-74842191D01*
X152171843Y-75052235D01*
X152122560Y-75300000D01*
X152122560Y-77100000D01*
X152171843Y-77347765D01*
X152312191Y-77557809D01*
X152522235Y-77698157D01*
X152770000Y-77747440D01*
X154570000Y-77747440D01*
X154817765Y-77698157D01*
X155027809Y-77557809D01*
X155168157Y-77347765D01*
X155217440Y-77100000D01*
X155217440Y-76893819D01*
X155425079Y-76755079D01*
X155980158Y-76200000D01*
X159724928Y-76200000D01*
X159841773Y-76787419D01*
X160174519Y-77285409D01*
X160672509Y-77618155D01*
X161259928Y-77735000D01*
X161320072Y-77735000D01*
X161907491Y-77618155D01*
X162405481Y-77285409D01*
X162738227Y-76787419D01*
X162855072Y-76200000D01*
X162738227Y-75612581D01*
X162405481Y-75114591D01*
X161907491Y-74781845D01*
X161320072Y-74665000D01*
X161259928Y-74665000D01*
X160672509Y-74781845D01*
X160174519Y-75114591D01*
X159841773Y-75612581D01*
X159724928Y-76200000D01*
X155980158Y-76200000D01*
X156765079Y-75415079D01*
X156935245Y-75160407D01*
X156995000Y-74860000D01*
X156995000Y-71755000D01*
X156935245Y-71454594D01*
X156765079Y-71199921D01*
X155520080Y-69954922D01*
X155540950Y-69850000D01*
X155481091Y-69549067D01*
X156765079Y-68265079D01*
X156935245Y-68010407D01*
X156995000Y-67710000D01*
X156995000Y-63686528D01*
X158035079Y-62646449D01*
X158205245Y-62391777D01*
X158250107Y-62166242D01*
X158494698Y-62002811D01*
X158743018Y-61631174D01*
X158954990Y-61843146D01*
X158954990Y-71239990D01*
X159014745Y-71540397D01*
X159184911Y-71795069D01*
X159478909Y-72089067D01*
X159419050Y-72390000D01*
X159528283Y-72939151D01*
X159839352Y-73404698D01*
X160304899Y-73715767D01*
X160854050Y-73825000D01*
X161725950Y-73825000D01*
X162275101Y-73715767D01*
X162740648Y-73404698D01*
X163051717Y-72939151D01*
X163154130Y-72424288D01*
X163205000Y-72475158D01*
X163205000Y-78976342D01*
X162968885Y-79073903D01*
X162460688Y-79581215D01*
X162361536Y-79820000D01*
X158790000Y-79820000D01*
X158489594Y-79879755D01*
X158234921Y-80049921D01*
X157817282Y-80467560D01*
X156680000Y-80467560D01*
X156432235Y-80516843D01*
X156222191Y-80657191D01*
X156081843Y-80867235D01*
X156032560Y-81115000D01*
X156032560Y-82715000D01*
X156081843Y-82962765D01*
X156222191Y-83172809D01*
X156432235Y-83313157D01*
X156680000Y-83362440D01*
X158280000Y-83362440D01*
X158527765Y-83313157D01*
X158737809Y-83172809D01*
X158878157Y-82962765D01*
X158898121Y-82862400D01*
X159166077Y-83130824D01*
X159693309Y-83349750D01*
X160264187Y-83350248D01*
X160791800Y-83132243D01*
X161195824Y-82728923D01*
X161414750Y-82201691D01*
X161415248Y-81630813D01*
X161315746Y-81390000D01*
X162361342Y-81390000D01*
X162458903Y-81626115D01*
X162966215Y-82134312D01*
X163629388Y-82409686D01*
X164347462Y-82410313D01*
X165011115Y-82136097D01*
X165519312Y-81628785D01*
X165794686Y-80965612D01*
X165795313Y-80247538D01*
X165521097Y-79583885D01*
X165013785Y-79075688D01*
X164775000Y-78976536D01*
X164775000Y-76985158D01*
X169624921Y-81835079D01*
X169879594Y-82005245D01*
X170180000Y-82065000D01*
X172581441Y-82065000D01*
X172430016Y-82128586D01*
X172175106Y-82799890D01*
X172196496Y-83517646D01*
X172430016Y-84081414D01*
X172714514Y-84200880D01*
X173810395Y-83105000D01*
X173796252Y-83090858D01*
X173975858Y-82911252D01*
X173990000Y-82925395D01*
X174004142Y-82911252D01*
X174183748Y-83090858D01*
X174169605Y-83105000D01*
X175265486Y-84200880D01*
X175549984Y-84081414D01*
X175804894Y-83410110D01*
X175783504Y-82692354D01*
X175549984Y-82128586D01*
X175398559Y-82065000D01*
X176543750Y-82065000D01*
X176720853Y-82330054D01*
X177202622Y-82651961D01*
X177770907Y-82765000D01*
X177829093Y-82765000D01*
X178397378Y-82651961D01*
X178879147Y-82330054D01*
X179201054Y-81848285D01*
X179314093Y-81280000D01*
X179201054Y-80711715D01*
X178879147Y-80229946D01*
X178549974Y-80010000D01*
X178879147Y-79790054D01*
X179201054Y-79308285D01*
X179314093Y-78740000D01*
X179201054Y-78171715D01*
X178879147Y-77689946D01*
X178835223Y-77660597D01*
X178897765Y-77648157D01*
X179107809Y-77507809D01*
X179248157Y-77297765D01*
X179297440Y-77050000D01*
X179297440Y-75350000D01*
X179248157Y-75102235D01*
X179107809Y-74892191D01*
X178897765Y-74751843D01*
X178650000Y-74702560D01*
X176950000Y-74702560D01*
X176702235Y-74751843D01*
X176492191Y-74892191D01*
X176351843Y-75102235D01*
X176302560Y-75350000D01*
X176302560Y-75415000D01*
X170505158Y-75415000D01*
X170195011Y-75104853D01*
X170195011Y-66540011D01*
X170135256Y-66239605D01*
X169965090Y-65984932D01*
X166474541Y-62494383D01*
X171384769Y-62494383D01*
X171587582Y-62985229D01*
X171935000Y-63333253D01*
X171935000Y-64770000D01*
X171994755Y-65070407D01*
X172164921Y-65325079D01*
X172824924Y-65985082D01*
X172465617Y-65984769D01*
X171974771Y-66187582D01*
X171598902Y-66562796D01*
X171395232Y-67053287D01*
X171394769Y-67584383D01*
X171597582Y-68075229D01*
X171972796Y-68451098D01*
X172463287Y-68654768D01*
X172955039Y-68655197D01*
X174704921Y-70405079D01*
X174959593Y-70575245D01*
X175260000Y-70635000D01*
X176543750Y-70635000D01*
X176720853Y-70900054D01*
X177050026Y-71120000D01*
X176720853Y-71339946D01*
X176537068Y-71615000D01*
X173832699Y-71615000D01*
X173487204Y-71268902D01*
X172996713Y-71065232D01*
X172465617Y-71064769D01*
X171974771Y-71267582D01*
X171598902Y-71642796D01*
X171395232Y-72133287D01*
X171394769Y-72664383D01*
X171597582Y-73155229D01*
X171972796Y-73531098D01*
X172463287Y-73734768D01*
X172994383Y-73735231D01*
X173485229Y-73532418D01*
X173833253Y-73185000D01*
X176550432Y-73185000D01*
X176720853Y-73440054D01*
X177202622Y-73761961D01*
X177770907Y-73875000D01*
X177829093Y-73875000D01*
X178397378Y-73761961D01*
X178879147Y-73440054D01*
X179201054Y-72958285D01*
X179314093Y-72390000D01*
X179201054Y-71821715D01*
X178879147Y-71339946D01*
X178549974Y-71120000D01*
X178879147Y-70900054D01*
X179201054Y-70418285D01*
X179314093Y-69850000D01*
X179201054Y-69281715D01*
X178879147Y-68799946D01*
X178835223Y-68770597D01*
X178897765Y-68758157D01*
X179107809Y-68617809D01*
X179248157Y-68407765D01*
X179297440Y-68160000D01*
X179297440Y-66460000D01*
X179248157Y-66212235D01*
X179107809Y-66002191D01*
X178897765Y-65861843D01*
X178650000Y-65812560D01*
X176950000Y-65812560D01*
X176702235Y-65861843D01*
X176492191Y-66002191D01*
X176351843Y-66212235D01*
X176302560Y-66460000D01*
X176302560Y-66525000D01*
X175585158Y-66525000D01*
X173505000Y-64444842D01*
X173505000Y-63332699D01*
X173851098Y-62987204D01*
X174054768Y-62496713D01*
X174055231Y-61965617D01*
X173852418Y-61474771D01*
X173477204Y-61098902D01*
X172986713Y-60895232D01*
X172455617Y-60894769D01*
X171964771Y-61097582D01*
X171588902Y-61472796D01*
X171385232Y-61963287D01*
X171384769Y-62494383D01*
X166474541Y-62494383D01*
X166434805Y-62454647D01*
X166435231Y-61965617D01*
X166232418Y-61474771D01*
X165857204Y-61098902D01*
X165366713Y-60895232D01*
X164835617Y-60894769D01*
X164344771Y-61097582D01*
X163968902Y-61472796D01*
X163765232Y-61963287D01*
X163764769Y-62494383D01*
X163967582Y-62985229D01*
X164342796Y-63361098D01*
X164833287Y-63564768D01*
X165325039Y-63565197D01*
X168625011Y-66865169D01*
X168625011Y-69714853D01*
X166434805Y-67524647D01*
X166435231Y-67035617D01*
X166232418Y-66544771D01*
X165857204Y-66168902D01*
X165366713Y-65965232D01*
X164835617Y-65964769D01*
X164344771Y-66167582D01*
X163968902Y-66542796D01*
X163765232Y-67033287D01*
X163764769Y-67564383D01*
X163967582Y-68055229D01*
X164342796Y-68431098D01*
X164833287Y-68634768D01*
X165325039Y-68635197D01*
X168125000Y-71435158D01*
X168125000Y-78114842D01*
X165885000Y-75874842D01*
X165885000Y-73492699D01*
X166231098Y-73147204D01*
X166434768Y-72656713D01*
X166435231Y-72125617D01*
X166232418Y-71634771D01*
X165857204Y-71258902D01*
X165366713Y-71055232D01*
X164835617Y-71054769D01*
X164344771Y-71257582D01*
X164276196Y-71326038D01*
X163101091Y-70150933D01*
X163160950Y-69850000D01*
X163051717Y-69300849D01*
X162740648Y-68835302D01*
X162358562Y-68580000D01*
X162740648Y-68324698D01*
X163051717Y-67859151D01*
X163160950Y-67310000D01*
X163051717Y-66760849D01*
X162740648Y-66295302D01*
X162362293Y-66042493D01*
X162794500Y-65694896D01*
X163064367Y-65201819D01*
X163081904Y-65119039D01*
X162959915Y-64897000D01*
X161417000Y-64897000D01*
X161417000Y-64917000D01*
X161163000Y-64917000D01*
X161163000Y-64897000D01*
X161143000Y-64897000D01*
X161143000Y-64643000D01*
X161163000Y-64643000D01*
X161163000Y-63335000D01*
X161417000Y-63335000D01*
X161417000Y-64643000D01*
X162959915Y-64643000D01*
X163081904Y-64420961D01*
X163064367Y-64338181D01*
X162794500Y-63845104D01*
X162356483Y-63492834D01*
X161817000Y-63335000D01*
X161417000Y-63335000D01*
X161163000Y-63335000D01*
X160763000Y-63335000D01*
X160524990Y-63404633D01*
X160524990Y-62169647D01*
X160740849Y-62313880D01*
X161290000Y-62423113D01*
X161839151Y-62313880D01*
X162304698Y-62002811D01*
X162615767Y-61537264D01*
X162725000Y-60988113D01*
X162725000Y-60931887D01*
X162615767Y-60382736D01*
X162506280Y-60218878D01*
X162885158Y-59840000D01*
X175569842Y-59840000D01*
X176372363Y-60642521D01*
X176315000Y-60930907D01*
X176315000Y-60989093D01*
X176428039Y-61557378D01*
X176749946Y-62039147D01*
X176753643Y-62041617D01*
X176702235Y-62051843D01*
X176492191Y-62192191D01*
X176351843Y-62402235D01*
X176302560Y-62650000D01*
X176302560Y-64350000D01*
X176351843Y-64597765D01*
X176492191Y-64807809D01*
X176702235Y-64948157D01*
X176950000Y-64997440D01*
X178650000Y-64997440D01*
X178897765Y-64948157D01*
X179107809Y-64807809D01*
X179248157Y-64597765D01*
X179297440Y-64350000D01*
X179297440Y-62650000D01*
X179248157Y-62402235D01*
X179107809Y-62192191D01*
X178897765Y-62051843D01*
X178846357Y-62041617D01*
X178850054Y-62039147D01*
X179171961Y-61557378D01*
X179285000Y-60989093D01*
X179285000Y-60930907D01*
X179171961Y-60362622D01*
X178850054Y-59880853D01*
X178368285Y-59558946D01*
X177800000Y-59445907D01*
X177463082Y-59512924D01*
X176687658Y-58737500D01*
X176961330Y-58463828D01*
X177493330Y-58684733D01*
X178103991Y-58685265D01*
X178668371Y-58452068D01*
X179100551Y-58020643D01*
X179334733Y-57456670D01*
X179335265Y-56846009D01*
X179102068Y-56281629D01*
X178932025Y-56111288D01*
X178947765Y-56108157D01*
X179157809Y-55967809D01*
X179298157Y-55757765D01*
X179347440Y-55510000D01*
X179347440Y-53710000D01*
X179298157Y-53462235D01*
X179157809Y-53252191D01*
X178947765Y-53111843D01*
X178700000Y-53062560D01*
X176900000Y-53062560D01*
X176652235Y-53111843D01*
X176442191Y-53252191D01*
X176301843Y-53462235D01*
X176252560Y-53710000D01*
X176252560Y-55510000D01*
X176301843Y-55757765D01*
X176442191Y-55967809D01*
X176652235Y-56108157D01*
X176667839Y-56111261D01*
X176499449Y-56279357D01*
X176265267Y-56843330D01*
X176265183Y-56939659D01*
X175569842Y-57635000D01*
X162885158Y-57635000D01*
X159597903Y-54347745D01*
X160461861Y-54347745D01*
X160535995Y-54593864D01*
X161073223Y-54786965D01*
X161643454Y-54759778D01*
X162044005Y-54593864D01*
X162118139Y-54347745D01*
X161290000Y-53519605D01*
X160461861Y-54347745D01*
X159597903Y-54347745D01*
X158903630Y-53653472D01*
X158914750Y-53626691D01*
X158915189Y-53123223D01*
X159843035Y-53123223D01*
X159870222Y-53693454D01*
X160036136Y-54094005D01*
X160282255Y-54168139D01*
X161110395Y-53340000D01*
X161469605Y-53340000D01*
X162297745Y-54168139D01*
X162543864Y-54094005D01*
X162610002Y-53910000D01*
X163752560Y-53910000D01*
X163752560Y-55310000D01*
X163801843Y-55557765D01*
X163942191Y-55767809D01*
X164152235Y-55908157D01*
X164400000Y-55957440D01*
X165800000Y-55957440D01*
X166047765Y-55908157D01*
X166257809Y-55767809D01*
X166398157Y-55557765D01*
X166447440Y-55310000D01*
X166447440Y-54874383D01*
X171384769Y-54874383D01*
X171587582Y-55365229D01*
X171962796Y-55741098D01*
X172453287Y-55944768D01*
X172984383Y-55945231D01*
X173475229Y-55742418D01*
X173851098Y-55367204D01*
X174054768Y-54876713D01*
X174055231Y-54345617D01*
X173852418Y-53854771D01*
X173477204Y-53478902D01*
X172986713Y-53275232D01*
X172455617Y-53274769D01*
X171964771Y-53477582D01*
X171588902Y-53852796D01*
X171385232Y-54343287D01*
X171384769Y-54874383D01*
X166447440Y-54874383D01*
X166447440Y-53910000D01*
X166398157Y-53662235D01*
X166257809Y-53452191D01*
X166047765Y-53311843D01*
X165800000Y-53262560D01*
X164400000Y-53262560D01*
X164152235Y-53311843D01*
X163942191Y-53452191D01*
X163801843Y-53662235D01*
X163752560Y-53910000D01*
X162610002Y-53910000D01*
X162736965Y-53556777D01*
X162709778Y-52986546D01*
X162543864Y-52585995D01*
X162297745Y-52511861D01*
X161469605Y-53340000D01*
X161110395Y-53340000D01*
X160282255Y-52511861D01*
X160036136Y-52585995D01*
X159843035Y-53123223D01*
X158915189Y-53123223D01*
X158915248Y-53055813D01*
X158697243Y-52528200D01*
X158501640Y-52332255D01*
X160461861Y-52332255D01*
X161290000Y-53160395D01*
X162118139Y-52332255D01*
X162044005Y-52086136D01*
X161506777Y-51893035D01*
X160936546Y-51920222D01*
X160535995Y-52086136D01*
X160461861Y-52332255D01*
X158501640Y-52332255D01*
X158293923Y-52124176D01*
X157766691Y-51905250D01*
X157195813Y-51904752D01*
X156668200Y-52122757D01*
X156264176Y-52526077D01*
X156045250Y-53053309D01*
X156044752Y-53624187D01*
X156262757Y-54151800D01*
X156666077Y-54555824D01*
X157193309Y-54774750D01*
X157764187Y-54775248D01*
X157793131Y-54763289D01*
X161767342Y-58737500D01*
X160937922Y-59566920D01*
X160740849Y-59606120D01*
X160275302Y-59917189D01*
X159964233Y-60382736D01*
X159922865Y-60590705D01*
X158587080Y-59254920D01*
X158332408Y-59084754D01*
X158032001Y-59024999D01*
X154972577Y-59024999D01*
X155104750Y-58706691D01*
X155105248Y-58135813D01*
X154887243Y-57608200D01*
X154483923Y-57204176D01*
X153956691Y-56985250D01*
X153385813Y-56984752D01*
X152858200Y-57202757D01*
X152454176Y-57606077D01*
X152235250Y-58133309D01*
X152234752Y-58704187D01*
X152452757Y-59231800D01*
X152856077Y-59635824D01*
X152937931Y-59669813D01*
X152858200Y-59702757D01*
X152454176Y-60106077D01*
X152235250Y-60633309D01*
X152234752Y-61204187D01*
X152452757Y-61731800D01*
X152856077Y-62135824D01*
X153383309Y-62354750D01*
X153954187Y-62355248D01*
X154481800Y-62137243D01*
X154885824Y-61733923D01*
X155104750Y-61206691D01*
X155105248Y-60635813D01*
X155093288Y-60606869D01*
X155105158Y-60594999D01*
X156112011Y-60594999D01*
X156045000Y-60931887D01*
X156045000Y-60988113D01*
X156154233Y-61537264D01*
X156462538Y-61998674D01*
X155654921Y-62806291D01*
X155484755Y-63060963D01*
X155484755Y-63060964D01*
X155425000Y-63361370D01*
X155425000Y-63657646D01*
X155327809Y-63512191D01*
X155117765Y-63371843D01*
X154870000Y-63322560D01*
X152470000Y-63322560D01*
X152222235Y-63371843D01*
X152012191Y-63512191D01*
X151871843Y-63722235D01*
X151840000Y-63882322D01*
X151840000Y-51600771D01*
X152252251Y-52217749D01*
X152902720Y-52652378D01*
X153670000Y-52805000D01*
X154437280Y-52652378D01*
X155087749Y-52217749D01*
X155522378Y-51567280D01*
X155675000Y-50800000D01*
X155522378Y-50032720D01*
X155087749Y-49382251D01*
X154470771Y-48970000D01*
X163060904Y-48970000D01*
X162707051Y-49116209D01*
M02*
