G04 #@! TF.GenerationSoftware,KiCad,Pcbnew,(2017-10-17 revision 537804b)-master*
G04 #@! TF.CreationDate,2017-12-28T11:37:30+01:00*
G04 #@! TF.ProjectId,MonoStable555,4D6F6E6F537461626C653535352E6B69,rev?*
G04 #@! TF.SameCoordinates,Original*
G04 #@! TF.FileFunction,Legend,Bot*
G04 #@! TF.FilePolarity,Positive*
%FSLAX46Y46*%
G04 Gerber Fmt 4.6, Leading zero omitted, Abs format (unit mm)*
G04 Created by KiCad (PCBNEW (2017-10-17 revision 537804b)-master) date 2017 December 28, Thursday 11:37:30*
%MOMM*%
%LPD*%
G01*
G04 APERTURE LIST*
%ADD10C,0.150000*%
%ADD11C,0.300000*%
G04 APERTURE END LIST*
D10*
X180030476Y-53754523D02*
X179982857Y-53659285D01*
X179982857Y-53468809D01*
X180030476Y-53373571D01*
X180125714Y-53278333D01*
X180220952Y-53230714D01*
X180411428Y-53230714D01*
X180506666Y-53278333D01*
X180601904Y-53373571D01*
X180649523Y-53468809D01*
X180649523Y-53659285D01*
X180601904Y-53754523D01*
X179649523Y-53564047D02*
X179697142Y-53325952D01*
X179840000Y-53087857D01*
X180078095Y-52945000D01*
X180316190Y-52897380D01*
X180554285Y-52945000D01*
X180792380Y-53087857D01*
X180935238Y-53325952D01*
X180982857Y-53564047D01*
X180935238Y-53802142D01*
X180792380Y-54040238D01*
X180554285Y-54183095D01*
X180316190Y-54230714D01*
X180078095Y-54183095D01*
X179840000Y-54040238D01*
X179697142Y-53802142D01*
X179649523Y-53564047D01*
X180792380Y-54659285D02*
X179792380Y-54659285D01*
X180506666Y-54992619D01*
X179792380Y-55325952D01*
X180792380Y-55325952D01*
X180792380Y-55802142D02*
X179792380Y-55802142D01*
X179792380Y-56564047D02*
X180506666Y-56564047D01*
X180649523Y-56516428D01*
X180744761Y-56421190D01*
X180792380Y-56278333D01*
X180792380Y-56183095D01*
X180506666Y-56992619D02*
X180506666Y-57468809D01*
X180792380Y-56897380D02*
X179792380Y-57230714D01*
X180792380Y-57564047D01*
X180792380Y-59183095D02*
X180792380Y-58611666D01*
X180792380Y-58897380D02*
X179792380Y-58897380D01*
X179935238Y-58802142D01*
X180030476Y-58706904D01*
X180078095Y-58611666D01*
X180792380Y-59659285D02*
X180792380Y-59849761D01*
X180744761Y-59944999D01*
X180697142Y-59992619D01*
X180554285Y-60087857D01*
X180363809Y-60135476D01*
X179982857Y-60135476D01*
X179887619Y-60087857D01*
X179840000Y-60040238D01*
X179792380Y-59944999D01*
X179792380Y-59754523D01*
X179840000Y-59659285D01*
X179887619Y-59611666D01*
X179982857Y-59564047D01*
X180220952Y-59564047D01*
X180316190Y-59611666D01*
X180363809Y-59659285D01*
X180411428Y-59754523D01*
X180411428Y-59944999D01*
X180363809Y-60040238D01*
X180316190Y-60087857D01*
X180220952Y-60135476D01*
X180792380Y-60611666D02*
X180792380Y-60802142D01*
X180744761Y-60897380D01*
X180697142Y-60944999D01*
X180554285Y-61040238D01*
X180363809Y-61087857D01*
X179982857Y-61087857D01*
X179887619Y-61040238D01*
X179840000Y-60992619D01*
X179792380Y-60897380D01*
X179792380Y-60706904D01*
X179840000Y-60611666D01*
X179887619Y-60564047D01*
X179982857Y-60516428D01*
X180220952Y-60516428D01*
X180316190Y-60564047D01*
X180363809Y-60611666D01*
X180411428Y-60706904D01*
X180411428Y-60897380D01*
X180363809Y-60992619D01*
X180316190Y-61040238D01*
X180220952Y-61087857D01*
X179792380Y-61421190D02*
X179792380Y-62087857D01*
X180792380Y-61659285D01*
X180411428Y-62468809D02*
X180411428Y-63230714D01*
X179887619Y-63659285D02*
X179840000Y-63706904D01*
X179792380Y-63802142D01*
X179792380Y-64040238D01*
X179840000Y-64135476D01*
X179887619Y-64183095D01*
X179982857Y-64230714D01*
X180078095Y-64230714D01*
X180220952Y-64183095D01*
X180792380Y-63611666D01*
X180792380Y-64230714D01*
X179792380Y-64849761D02*
X179792380Y-64944999D01*
X179840000Y-65040238D01*
X179887619Y-65087857D01*
X179982857Y-65135476D01*
X180173333Y-65183095D01*
X180411428Y-65183095D01*
X180601904Y-65135476D01*
X180697142Y-65087857D01*
X180744761Y-65040238D01*
X180792380Y-64944999D01*
X180792380Y-64849761D01*
X180744761Y-64754523D01*
X180697142Y-64706904D01*
X180601904Y-64659285D01*
X180411428Y-64611666D01*
X180173333Y-64611666D01*
X179982857Y-64659285D01*
X179887619Y-64706904D01*
X179840000Y-64754523D01*
X179792380Y-64849761D01*
X180792380Y-66135476D02*
X180792380Y-65564047D01*
X180792380Y-65849761D02*
X179792380Y-65849761D01*
X179935238Y-65754523D01*
X180030476Y-65659285D01*
X180078095Y-65564047D01*
X179792380Y-66468809D02*
X179792380Y-67135476D01*
X180792380Y-66706904D01*
X179744761Y-68992619D02*
X181030476Y-68135476D01*
X180792380Y-70087857D02*
X179792380Y-70087857D01*
X180506666Y-70421190D01*
X179792380Y-70754523D01*
X180792380Y-70754523D01*
X180792380Y-71230714D02*
X179792380Y-71230714D01*
X180697142Y-72278333D02*
X180744761Y-72230714D01*
X180792380Y-72087857D01*
X180792380Y-71992619D01*
X180744761Y-71849761D01*
X180649523Y-71754523D01*
X180554285Y-71706904D01*
X180363809Y-71659285D01*
X180220952Y-71659285D01*
X180030476Y-71706904D01*
X179935238Y-71754523D01*
X179840000Y-71849761D01*
X179792380Y-71992619D01*
X179792380Y-72087857D01*
X179840000Y-72230714D01*
X179887619Y-72278333D01*
X180792380Y-72706904D02*
X179792380Y-72706904D01*
X180268571Y-72706904D02*
X180268571Y-73278333D01*
X180792380Y-73278333D02*
X179792380Y-73278333D01*
X180506666Y-73706904D02*
X180506666Y-74183095D01*
X180792380Y-73611666D02*
X179792380Y-73944999D01*
X180792380Y-74278333D01*
X180268571Y-74611666D02*
X180268571Y-74944999D01*
X180792380Y-75087857D02*
X180792380Y-74611666D01*
X179792380Y-74611666D01*
X179792380Y-75087857D01*
X180792380Y-75992619D02*
X180792380Y-75516428D01*
X179792380Y-75516428D01*
X179792380Y-76183095D02*
X179792380Y-76754523D01*
X180792380Y-76468809D02*
X179792380Y-76468809D01*
X180268571Y-77087857D02*
X180268571Y-77421190D01*
X180792380Y-77564047D02*
X180792380Y-77087857D01*
X179792380Y-77087857D01*
X179792380Y-77564047D01*
X180268571Y-77992619D02*
X180268571Y-78325952D01*
X180792380Y-78468809D02*
X180792380Y-77992619D01*
X179792380Y-77992619D01*
X179792380Y-78468809D01*
X179792380Y-78897380D02*
X180601904Y-78897380D01*
X180697142Y-78944999D01*
X180744761Y-78992619D01*
X180792380Y-79087857D01*
X180792380Y-79278333D01*
X180744761Y-79373571D01*
X180697142Y-79421190D01*
X180601904Y-79468809D01*
X179792380Y-79468809D01*
X179792380Y-79849761D02*
X180792380Y-80087857D01*
X180078095Y-80278333D01*
X180792380Y-80468809D01*
X179792380Y-80706904D01*
X180697142Y-81087857D02*
X180744761Y-81135476D01*
X180792380Y-81087857D01*
X180744761Y-81040238D01*
X180697142Y-81087857D01*
X180792380Y-81087857D01*
X180792380Y-81564047D02*
X179792380Y-81564047D01*
X180792380Y-82135476D01*
X179792380Y-82135476D01*
X180792380Y-83087857D02*
X180792380Y-82611666D01*
X179792380Y-82611666D01*
D11*
X175566428Y-86290476D02*
X175566428Y-85040476D01*
X175149761Y-85933333D01*
X174733095Y-85040476D01*
X174733095Y-86290476D01*
X173899761Y-85040476D02*
X173661666Y-85040476D01*
X173542619Y-85100000D01*
X173423571Y-85219047D01*
X173364047Y-85457142D01*
X173364047Y-85873809D01*
X173423571Y-86111904D01*
X173542619Y-86230952D01*
X173661666Y-86290476D01*
X173899761Y-86290476D01*
X174018809Y-86230952D01*
X174137857Y-86111904D01*
X174197380Y-85873809D01*
X174197380Y-85457142D01*
X174137857Y-85219047D01*
X174018809Y-85100000D01*
X173899761Y-85040476D01*
X172828333Y-86290476D02*
X172828333Y-85040476D01*
X172530714Y-85040476D01*
X172352142Y-85100000D01*
X172233095Y-85219047D01*
X172173571Y-85338095D01*
X172114047Y-85576190D01*
X172114047Y-85754761D01*
X172173571Y-85992857D01*
X172233095Y-86111904D01*
X172352142Y-86230952D01*
X172530714Y-86290476D01*
X172828333Y-86290476D01*
X171578333Y-85635714D02*
X171161666Y-85635714D01*
X170983095Y-86290476D02*
X171578333Y-86290476D01*
X171578333Y-85040476D01*
X170983095Y-85040476D01*
X169852142Y-86290476D02*
X170447380Y-86290476D01*
X170447380Y-85040476D01*
X169614047Y-85040476D02*
X168899761Y-85040476D01*
X169256904Y-86290476D02*
X169256904Y-85040476D01*
X167768809Y-86290476D02*
X168185476Y-85695238D01*
X168483095Y-86290476D02*
X168483095Y-85040476D01*
X168006904Y-85040476D01*
X167887857Y-85100000D01*
X167828333Y-85159523D01*
X167768809Y-85278571D01*
X167768809Y-85457142D01*
X167828333Y-85576190D01*
X167887857Y-85635714D01*
X168006904Y-85695238D01*
X168483095Y-85695238D01*
X167233095Y-85635714D02*
X166816428Y-85635714D01*
X166637857Y-86290476D02*
X167233095Y-86290476D01*
X167233095Y-85040476D01*
X166637857Y-85040476D01*
X166102142Y-86290476D02*
X166102142Y-85040476D01*
X165506904Y-86290476D02*
X165506904Y-85040476D01*
X164792619Y-86290476D01*
X164792619Y-85040476D01*
X163780714Y-85635714D02*
X163602142Y-85695238D01*
X163542619Y-85754761D01*
X163483095Y-85873809D01*
X163483095Y-86052380D01*
X163542619Y-86171428D01*
X163602142Y-86230952D01*
X163721190Y-86290476D01*
X164197380Y-86290476D01*
X164197380Y-85040476D01*
X163780714Y-85040476D01*
X163661666Y-85100000D01*
X163602142Y-85159523D01*
X163542619Y-85278571D01*
X163542619Y-85397619D01*
X163602142Y-85516666D01*
X163661666Y-85576190D01*
X163780714Y-85635714D01*
X164197380Y-85635714D01*
X163006904Y-85933333D02*
X162411666Y-85933333D01*
X163125952Y-86290476D02*
X162709285Y-85040476D01*
X162292619Y-86290476D01*
X161935476Y-85933333D02*
X161340238Y-85933333D01*
X162054523Y-86290476D02*
X161637857Y-85040476D01*
X161221190Y-86290476D01*
X160804523Y-86290476D02*
X160804523Y-85040476D01*
X160090238Y-86290476D01*
X160090238Y-85040476D01*
X159495000Y-86171428D02*
X159435476Y-86230952D01*
X159495000Y-86290476D01*
X159554523Y-86230952D01*
X159495000Y-86171428D01*
X159495000Y-86290476D01*
X158899761Y-86290476D02*
X158899761Y-85040476D01*
X158185476Y-86290476D01*
X158185476Y-85040476D01*
X156995000Y-86290476D02*
X157590238Y-86290476D01*
X157590238Y-85040476D01*
M02*
