G04 #@! TF.GenerationSoftware,KiCad,Pcbnew,(2017-10-17 revision 537804b)-master*
G04 #@! TF.CreationDate,2017-12-28T11:37:30+01:00*
G04 #@! TF.ProjectId,MonoStable555,4D6F6E6F537461626C653535352E6B69,rev?*
G04 #@! TF.SameCoordinates,Original*
G04 #@! TF.FileFunction,Legend,Top*
G04 #@! TF.FilePolarity,Positive*
%FSLAX46Y46*%
G04 Gerber Fmt 4.6, Leading zero omitted, Abs format (unit mm)*
G04 Created by KiCad (PCBNEW (2017-10-17 revision 537804b)-master) date 2017 December 28, Thursday 11:37:30*
%MOMM*%
%LPD*%
G01*
G04 APERTURE LIST*
%ADD10C,0.200000*%
%ADD11C,0.375000*%
%ADD12C,0.120000*%
%ADD13C,0.150000*%
G04 APERTURE END LIST*
D10*
X166560476Y-51197619D02*
X167131904Y-51197619D01*
X166846190Y-51197619D02*
X166846190Y-52197619D01*
X166941428Y-52054761D01*
X167036666Y-51959523D01*
X167131904Y-51911904D01*
X166179523Y-52102380D02*
X166131904Y-52150000D01*
X166036666Y-52197619D01*
X165798571Y-52197619D01*
X165703333Y-52150000D01*
X165655714Y-52102380D01*
X165608095Y-52007142D01*
X165608095Y-51911904D01*
X165655714Y-51769047D01*
X166227142Y-51197619D01*
X165608095Y-51197619D01*
X166703333Y-50497619D02*
X166370000Y-49497619D01*
X166036666Y-50497619D01*
D11*
X160718571Y-50907142D02*
X161861428Y-50907142D01*
X170878571Y-50907142D02*
X172021428Y-50907142D01*
X171450000Y-51478571D02*
X171450000Y-50335714D01*
D10*
X163830000Y-52070000D02*
X161290000Y-52070000D01*
X161290000Y-49530000D02*
X163830000Y-49530000D01*
X168910000Y-52070000D02*
X171450000Y-52070000D01*
X171450000Y-49530000D02*
X168910000Y-49530000D01*
X171450000Y-49530000D02*
G75*
G02X171450000Y-52070000I0J-1270000D01*
G01*
X161290000Y-52070000D02*
G75*
G02X161290000Y-49530000I0J1270000D01*
G01*
D12*
X169270000Y-54370000D02*
X168570000Y-54370000D01*
X169270000Y-55570000D02*
X169270000Y-54370000D01*
X168570000Y-55570000D02*
X169270000Y-55570000D01*
X168570000Y-54370000D02*
X168570000Y-55570000D01*
X168570000Y-55170000D02*
X169270000Y-54770000D01*
X169270000Y-55000000D02*
X170370000Y-55000000D01*
X168570000Y-55000000D02*
X167470000Y-55000000D01*
X170400000Y-54220000D02*
X170400000Y-53160000D01*
X167400000Y-54220000D02*
X170400000Y-54220000D01*
X167400000Y-53160000D02*
X167400000Y-54200000D01*
X174070000Y-53160000D02*
X163750000Y-53160000D01*
X174070000Y-73830000D02*
X174070000Y-53160000D01*
X163750000Y-73830000D02*
X174070000Y-73830000D01*
X163750000Y-53160000D02*
X163750000Y-73830000D01*
X163590000Y-54310000D02*
X163590000Y-53010000D01*
X163590000Y-53010000D02*
X164800000Y-53010000D01*
X155880000Y-81265000D02*
X155880000Y-82565000D01*
X155280000Y-81915000D02*
X156480000Y-81915000D01*
X161931000Y-81447000D02*
X161931000Y-82383000D01*
X161891000Y-81239000D02*
X161891000Y-82591000D01*
X161851000Y-81081000D02*
X161851000Y-82749000D01*
X161811000Y-80949000D02*
X161811000Y-82881000D01*
X161771000Y-80834000D02*
X161771000Y-82996000D01*
X161731000Y-80731000D02*
X161731000Y-83099000D01*
X161691000Y-80637000D02*
X161691000Y-83193000D01*
X161651000Y-80551000D02*
X161651000Y-83279000D01*
X161611000Y-80470000D02*
X161611000Y-83360000D01*
X161571000Y-80395000D02*
X161571000Y-83435000D01*
X161531000Y-80324000D02*
X161531000Y-83506000D01*
X161491000Y-80257000D02*
X161491000Y-83573000D01*
X161451000Y-80194000D02*
X161451000Y-83636000D01*
X161411000Y-80134000D02*
X161411000Y-83696000D01*
X161371000Y-80076000D02*
X161371000Y-83754000D01*
X161331000Y-80021000D02*
X161331000Y-83809000D01*
X161291000Y-79969000D02*
X161291000Y-83861000D01*
X161251000Y-79918000D02*
X161251000Y-83912000D01*
X161211000Y-79870000D02*
X161211000Y-83960000D01*
X161171000Y-79823000D02*
X161171000Y-84007000D01*
X161131000Y-79778000D02*
X161131000Y-84052000D01*
X161091000Y-79735000D02*
X161091000Y-84095000D01*
X161051000Y-79693000D02*
X161051000Y-84137000D01*
X161011000Y-79653000D02*
X161011000Y-84177000D01*
X160971000Y-79614000D02*
X160971000Y-84216000D01*
X160931000Y-82895000D02*
X160931000Y-84254000D01*
X160931000Y-79576000D02*
X160931000Y-80935000D01*
X160891000Y-82895000D02*
X160891000Y-84290000D01*
X160891000Y-79540000D02*
X160891000Y-80935000D01*
X160851000Y-82895000D02*
X160851000Y-84326000D01*
X160851000Y-79504000D02*
X160851000Y-80935000D01*
X160811000Y-82895000D02*
X160811000Y-84360000D01*
X160811000Y-79470000D02*
X160811000Y-80935000D01*
X160771000Y-82895000D02*
X160771000Y-84393000D01*
X160771000Y-79437000D02*
X160771000Y-80935000D01*
X160731000Y-82895000D02*
X160731000Y-84425000D01*
X160731000Y-79405000D02*
X160731000Y-80935000D01*
X160691000Y-82895000D02*
X160691000Y-84455000D01*
X160691000Y-79375000D02*
X160691000Y-80935000D01*
X160651000Y-82895000D02*
X160651000Y-84485000D01*
X160651000Y-79345000D02*
X160651000Y-80935000D01*
X160611000Y-82895000D02*
X160611000Y-84514000D01*
X160611000Y-79316000D02*
X160611000Y-80935000D01*
X160571000Y-82895000D02*
X160571000Y-84542000D01*
X160571000Y-79288000D02*
X160571000Y-80935000D01*
X160531000Y-82895000D02*
X160531000Y-84569000D01*
X160531000Y-79261000D02*
X160531000Y-80935000D01*
X160491000Y-82895000D02*
X160491000Y-84596000D01*
X160491000Y-79234000D02*
X160491000Y-80935000D01*
X160451000Y-82895000D02*
X160451000Y-84621000D01*
X160451000Y-79209000D02*
X160451000Y-80935000D01*
X160411000Y-82895000D02*
X160411000Y-84646000D01*
X160411000Y-79184000D02*
X160411000Y-80935000D01*
X160371000Y-82895000D02*
X160371000Y-84670000D01*
X160371000Y-79160000D02*
X160371000Y-80935000D01*
X160331000Y-82895000D02*
X160331000Y-84693000D01*
X160331000Y-79137000D02*
X160331000Y-80935000D01*
X160291000Y-82895000D02*
X160291000Y-84715000D01*
X160291000Y-79115000D02*
X160291000Y-80935000D01*
X160251000Y-82895000D02*
X160251000Y-84737000D01*
X160251000Y-79093000D02*
X160251000Y-80935000D01*
X160211000Y-82895000D02*
X160211000Y-84758000D01*
X160211000Y-79072000D02*
X160211000Y-80935000D01*
X160171000Y-82895000D02*
X160171000Y-84778000D01*
X160171000Y-79052000D02*
X160171000Y-80935000D01*
X160131000Y-82895000D02*
X160131000Y-84797000D01*
X160131000Y-79033000D02*
X160131000Y-80935000D01*
X160091000Y-82895000D02*
X160091000Y-84816000D01*
X160091000Y-79014000D02*
X160091000Y-80935000D01*
X160051000Y-82895000D02*
X160051000Y-84834000D01*
X160051000Y-78996000D02*
X160051000Y-80935000D01*
X160011000Y-82895000D02*
X160011000Y-84852000D01*
X160011000Y-78978000D02*
X160011000Y-80935000D01*
X159971000Y-82895000D02*
X159971000Y-84869000D01*
X159971000Y-78961000D02*
X159971000Y-80935000D01*
X159931000Y-82895000D02*
X159931000Y-84885000D01*
X159931000Y-78945000D02*
X159931000Y-80935000D01*
X159891000Y-82895000D02*
X159891000Y-84901000D01*
X159891000Y-78929000D02*
X159891000Y-80935000D01*
X159851000Y-82895000D02*
X159851000Y-84916000D01*
X159851000Y-78914000D02*
X159851000Y-80935000D01*
X159811000Y-82895000D02*
X159811000Y-84930000D01*
X159811000Y-78900000D02*
X159811000Y-80935000D01*
X159771000Y-82895000D02*
X159771000Y-84944000D01*
X159771000Y-78886000D02*
X159771000Y-80935000D01*
X159731000Y-82895000D02*
X159731000Y-84957000D01*
X159731000Y-78873000D02*
X159731000Y-80935000D01*
X159691000Y-82895000D02*
X159691000Y-84970000D01*
X159691000Y-78860000D02*
X159691000Y-80935000D01*
X159651000Y-82895000D02*
X159651000Y-84982000D01*
X159651000Y-78848000D02*
X159651000Y-80935000D01*
X159611000Y-82895000D02*
X159611000Y-84994000D01*
X159611000Y-78836000D02*
X159611000Y-80935000D01*
X159571000Y-82895000D02*
X159571000Y-85005000D01*
X159571000Y-78825000D02*
X159571000Y-80935000D01*
X159531000Y-82895000D02*
X159531000Y-85015000D01*
X159531000Y-78815000D02*
X159531000Y-80935000D01*
X159491000Y-82895000D02*
X159491000Y-85025000D01*
X159491000Y-78805000D02*
X159491000Y-80935000D01*
X159451000Y-82895000D02*
X159451000Y-85034000D01*
X159451000Y-78796000D02*
X159451000Y-80935000D01*
X159410000Y-82895000D02*
X159410000Y-85043000D01*
X159410000Y-78787000D02*
X159410000Y-80935000D01*
X159370000Y-82895000D02*
X159370000Y-85052000D01*
X159370000Y-78778000D02*
X159370000Y-80935000D01*
X159330000Y-82895000D02*
X159330000Y-85059000D01*
X159330000Y-78771000D02*
X159330000Y-80935000D01*
X159290000Y-82895000D02*
X159290000Y-85067000D01*
X159290000Y-78763000D02*
X159290000Y-80935000D01*
X159250000Y-82895000D02*
X159250000Y-85073000D01*
X159250000Y-78757000D02*
X159250000Y-80935000D01*
X159210000Y-82895000D02*
X159210000Y-85080000D01*
X159210000Y-78750000D02*
X159210000Y-80935000D01*
X159170000Y-82895000D02*
X159170000Y-85085000D01*
X159170000Y-78745000D02*
X159170000Y-80935000D01*
X159130000Y-82895000D02*
X159130000Y-85091000D01*
X159130000Y-78739000D02*
X159130000Y-80935000D01*
X159090000Y-82895000D02*
X159090000Y-85095000D01*
X159090000Y-78735000D02*
X159090000Y-80935000D01*
X159050000Y-82895000D02*
X159050000Y-85100000D01*
X159050000Y-78730000D02*
X159050000Y-80935000D01*
X159010000Y-82895000D02*
X159010000Y-85103000D01*
X159010000Y-78727000D02*
X159010000Y-80935000D01*
X158970000Y-78723000D02*
X158970000Y-85107000D01*
X158930000Y-78721000D02*
X158930000Y-85109000D01*
X158890000Y-78718000D02*
X158890000Y-85112000D01*
X158850000Y-78717000D02*
X158850000Y-85113000D01*
X158810000Y-78715000D02*
X158810000Y-85115000D01*
X158770000Y-78715000D02*
X158770000Y-85115000D01*
X158730000Y-78715000D02*
X158730000Y-85115000D01*
X161747820Y-83094136D02*
G75*
G03X161747482Y-80735000I-3017820J1179136D01*
G01*
X161747820Y-83094136D02*
G75*
G02X155712518Y-83095000I-3017820J1179136D01*
G01*
X161747820Y-80735864D02*
G75*
G03X155712518Y-80735000I-3017820J-1179136D01*
G01*
X154980000Y-62230000D02*
X152360000Y-62230000D01*
X154980000Y-57110000D02*
X152360000Y-57110000D01*
X152360000Y-57110000D02*
X152360000Y-62230000D01*
X154980000Y-57110000D02*
X154980000Y-62230000D01*
X176720000Y-54320000D02*
X176564000Y-54320000D01*
X179036000Y-54320000D02*
X178880000Y-54320000D01*
X176720163Y-56921130D02*
G75*
G02X176720000Y-54839039I1079837J1041130D01*
G01*
X178879837Y-56921130D02*
G75*
G03X178880000Y-54839039I-1079837J1041130D01*
G01*
X176721392Y-57552335D02*
G75*
G02X176564484Y-54320000I1078608J1672335D01*
G01*
X178878608Y-57552335D02*
G75*
G03X179035516Y-54320000I-1078608J1672335D01*
G01*
X176470000Y-74870000D02*
X177800000Y-74870000D01*
X176470000Y-76200000D02*
X176470000Y-74870000D01*
X176470000Y-77470000D02*
X179130000Y-77470000D01*
X179130000Y-77470000D02*
X179130000Y-82610000D01*
X176470000Y-77470000D02*
X176470000Y-82610000D01*
X176470000Y-82610000D02*
X179130000Y-82610000D01*
X176470000Y-73720000D02*
X179130000Y-73720000D01*
X176470000Y-68580000D02*
X176470000Y-73720000D01*
X179130000Y-68580000D02*
X179130000Y-73720000D01*
X176470000Y-68580000D02*
X179130000Y-68580000D01*
X176470000Y-67310000D02*
X176470000Y-65980000D01*
X176470000Y-65980000D02*
X177800000Y-65980000D01*
X158460000Y-53940000D02*
X158790000Y-53940000D01*
X158790000Y-53940000D02*
X158790000Y-60360000D01*
X158790000Y-60360000D02*
X158460000Y-60360000D01*
X156500000Y-53940000D02*
X156170000Y-53940000D01*
X156170000Y-53940000D02*
X156170000Y-60360000D01*
X156170000Y-60360000D02*
X156500000Y-60360000D01*
X163930000Y-79240000D02*
X163930000Y-75645000D01*
X163930000Y-85566000D02*
X163930000Y-81970000D01*
X174050000Y-76740000D02*
X174050000Y-75645000D01*
X174050000Y-81740000D02*
X174050000Y-79470000D01*
X174050000Y-85566000D02*
X174050000Y-84470000D01*
X174050000Y-75645000D02*
X163930000Y-75645000D01*
X174050000Y-85566000D02*
X163930000Y-85566000D01*
X170040000Y-80605000D02*
G75*
G03X170040000Y-80605000I-1050000J0D01*
G01*
X176470000Y-64830000D02*
X176470000Y-63500000D01*
X177800000Y-64830000D02*
X176470000Y-64830000D01*
X176470000Y-62230000D02*
X176470000Y-59630000D01*
X179070000Y-62230000D02*
X176470000Y-62230000D01*
X179070000Y-64830000D02*
X179070000Y-62230000D01*
X176470000Y-59630000D02*
X179130000Y-59630000D01*
X179070000Y-64830000D02*
X179130000Y-64830000D01*
X179130000Y-64830000D02*
X179130000Y-59630000D01*
X162730000Y-63380000D02*
X152230000Y-63380000D01*
X162730000Y-73780000D02*
X162730000Y-63380000D01*
X152230000Y-73780000D02*
X162730000Y-73780000D01*
X152230000Y-63380000D02*
X152230000Y-73780000D01*
X159730000Y-63440000D02*
X158480000Y-63440000D01*
X159730000Y-73720000D02*
X159730000Y-63440000D01*
X155230000Y-73720000D02*
X159730000Y-73720000D01*
X155230000Y-63440000D02*
X155230000Y-73720000D01*
X156480000Y-63440000D02*
X155230000Y-63440000D01*
X158480000Y-63440000D02*
G75*
G02X156480000Y-63440000I-1000000J0D01*
G01*
X155660000Y-74790000D02*
X155660000Y-77610000D01*
X160210000Y-76200000D02*
X160140000Y-76200000D01*
X154750000Y-76200000D02*
X154820000Y-76200000D01*
X160140000Y-74790000D02*
X154820000Y-74790000D01*
X160140000Y-77610000D02*
X160140000Y-74790000D01*
X154820000Y-77610000D02*
X160140000Y-77610000D01*
X154820000Y-74790000D02*
X154820000Y-77610000D01*
X159980000Y-60360000D02*
X160310000Y-60360000D01*
X159980000Y-53940000D02*
X159980000Y-60360000D01*
X160310000Y-53940000D02*
X159980000Y-53940000D01*
X162600000Y-60360000D02*
X162270000Y-60360000D01*
X162600000Y-53940000D02*
X162600000Y-60360000D01*
X162270000Y-53940000D02*
X162600000Y-53940000D01*
D13*
X167505238Y-59507380D02*
X167171904Y-59031190D01*
X166933809Y-59507380D02*
X166933809Y-58507380D01*
X167314761Y-58507380D01*
X167410000Y-58555000D01*
X167457619Y-58602619D01*
X167505238Y-58697857D01*
X167505238Y-58840714D01*
X167457619Y-58935952D01*
X167410000Y-58983571D01*
X167314761Y-59031190D01*
X166933809Y-59031190D01*
X167933809Y-58983571D02*
X168267142Y-58983571D01*
X168410000Y-59507380D02*
X167933809Y-59507380D01*
X167933809Y-58507380D01*
X168410000Y-58507380D01*
X169314761Y-59507380D02*
X168838571Y-59507380D01*
X168838571Y-58507380D01*
X169600476Y-59221666D02*
X170076666Y-59221666D01*
X169505238Y-59507380D02*
X169838571Y-58507380D01*
X170171904Y-59507380D01*
X170695714Y-59031190D02*
X170695714Y-59507380D01*
X170362380Y-58507380D02*
X170695714Y-59031190D01*
X171029047Y-58507380D01*
X155297142Y-82081666D02*
X155344761Y-82129285D01*
X155392380Y-82272142D01*
X155392380Y-82367380D01*
X155344761Y-82510238D01*
X155249523Y-82605476D01*
X155154285Y-82653095D01*
X154963809Y-82700714D01*
X154820952Y-82700714D01*
X154630476Y-82653095D01*
X154535238Y-82605476D01*
X154440000Y-82510238D01*
X154392380Y-82367380D01*
X154392380Y-82272142D01*
X154440000Y-82129285D01*
X154487619Y-82081666D01*
X155392380Y-81129285D02*
X155392380Y-81700714D01*
X155392380Y-81415000D02*
X154392380Y-81415000D01*
X154535238Y-81510238D01*
X154630476Y-81605476D01*
X154678095Y-81700714D01*
X157107142Y-86145714D02*
X157107142Y-86812380D01*
X156869047Y-85764761D02*
X156630952Y-86479047D01*
X157250000Y-86479047D01*
X157535714Y-85812380D02*
X158202380Y-85812380D01*
X157773809Y-86812380D01*
X158773809Y-85812380D02*
X158869047Y-85812380D01*
X158964285Y-85860000D01*
X159011904Y-85907619D01*
X159059523Y-86002857D01*
X159107142Y-86193333D01*
X159107142Y-86431428D01*
X159059523Y-86621904D01*
X159011904Y-86717142D01*
X158964285Y-86764761D01*
X158869047Y-86812380D01*
X158773809Y-86812380D01*
X158678571Y-86764761D01*
X158630952Y-86717142D01*
X158583333Y-86621904D01*
X158535714Y-86431428D01*
X158535714Y-86193333D01*
X158583333Y-86002857D01*
X158630952Y-85907619D01*
X158678571Y-85860000D01*
X158773809Y-85812380D01*
X159964285Y-86145714D02*
X159964285Y-86812380D01*
X159535714Y-86145714D02*
X159535714Y-86669523D01*
X159583333Y-86764761D01*
X159678571Y-86812380D01*
X159821428Y-86812380D01*
X159916666Y-86764761D01*
X159964285Y-86717142D01*
X160773809Y-86288571D02*
X160440476Y-86288571D01*
X160440476Y-86812380D02*
X160440476Y-85812380D01*
X160916666Y-85812380D01*
X153392142Y-56046666D02*
X153439761Y-56094285D01*
X153487380Y-56237142D01*
X153487380Y-56332380D01*
X153439761Y-56475238D01*
X153344523Y-56570476D01*
X153249285Y-56618095D01*
X153058809Y-56665714D01*
X152915952Y-56665714D01*
X152725476Y-56618095D01*
X152630238Y-56570476D01*
X152535000Y-56475238D01*
X152487380Y-56332380D01*
X152487380Y-56237142D01*
X152535000Y-56094285D01*
X152582619Y-56046666D01*
X152582619Y-55665714D02*
X152535000Y-55618095D01*
X152487380Y-55522857D01*
X152487380Y-55284761D01*
X152535000Y-55189523D01*
X152582619Y-55141904D01*
X152677857Y-55094285D01*
X152773095Y-55094285D01*
X152915952Y-55141904D01*
X153487380Y-55713333D01*
X153487380Y-55094285D01*
X153757380Y-56427618D02*
X153757380Y-56332380D01*
X153805000Y-56237142D01*
X153852619Y-56189523D01*
X153947857Y-56141904D01*
X154138333Y-56094285D01*
X154376428Y-56094285D01*
X154566904Y-56141904D01*
X154662142Y-56189523D01*
X154709761Y-56237142D01*
X154757380Y-56332380D01*
X154757380Y-56427618D01*
X154709761Y-56522856D01*
X154662142Y-56570475D01*
X154566904Y-56618094D01*
X154376428Y-56665713D01*
X154138333Y-56665713D01*
X153947857Y-56618094D01*
X153852619Y-56570475D01*
X153805000Y-56522856D01*
X153757380Y-56427618D01*
X154662142Y-55665713D02*
X154709761Y-55618094D01*
X154757380Y-55665713D01*
X154709761Y-55713332D01*
X154662142Y-55665713D01*
X154757380Y-55665713D01*
X153757380Y-54999047D02*
X153757380Y-54903809D01*
X153805000Y-54808571D01*
X153852619Y-54760951D01*
X153947857Y-54713332D01*
X154138333Y-54665713D01*
X154376428Y-54665713D01*
X154566904Y-54713332D01*
X154662142Y-54760951D01*
X154709761Y-54808571D01*
X154757380Y-54903809D01*
X154757380Y-54999047D01*
X154709761Y-55094285D01*
X154662142Y-55141904D01*
X154566904Y-55189523D01*
X154376428Y-55237142D01*
X154138333Y-55237142D01*
X153947857Y-55189523D01*
X153852619Y-55141904D01*
X153805000Y-55094285D01*
X153757380Y-54999047D01*
X154757380Y-53713332D02*
X154757380Y-54284761D01*
X154757380Y-53999047D02*
X153757380Y-53999047D01*
X153900238Y-54094285D01*
X153995476Y-54189523D01*
X154043095Y-54284761D01*
X154090714Y-52856190D02*
X154757380Y-52856190D01*
X154090714Y-53284761D02*
X154614523Y-53284761D01*
X154709761Y-53237142D01*
X154757380Y-53141904D01*
X154757380Y-52999047D01*
X154709761Y-52903809D01*
X154662142Y-52856190D01*
X154233571Y-52046666D02*
X154233571Y-52379999D01*
X154757380Y-52379999D02*
X153757380Y-52379999D01*
X153757380Y-51903809D01*
X180792380Y-56522857D02*
X180792380Y-56999047D01*
X179792380Y-56999047D01*
X180268571Y-56189523D02*
X180268571Y-55856190D01*
X180792380Y-55713333D02*
X180792380Y-56189523D01*
X179792380Y-56189523D01*
X179792380Y-55713333D01*
X180792380Y-55284761D02*
X179792380Y-55284761D01*
X179792380Y-55046666D01*
X179840000Y-54903809D01*
X179935238Y-54808571D01*
X180030476Y-54760952D01*
X180220952Y-54713333D01*
X180363809Y-54713333D01*
X180554285Y-54760952D01*
X180649523Y-54808571D01*
X180744761Y-54903809D01*
X180792380Y-55046666D01*
X180792380Y-55284761D01*
X180697142Y-81168571D02*
X180744761Y-81216190D01*
X180792380Y-81359047D01*
X180792380Y-81454285D01*
X180744761Y-81597142D01*
X180649523Y-81692380D01*
X180554285Y-81740000D01*
X180363809Y-81787619D01*
X180220952Y-81787619D01*
X180030476Y-81740000D01*
X179935238Y-81692380D01*
X179840000Y-81597142D01*
X179792380Y-81454285D01*
X179792380Y-81359047D01*
X179840000Y-81216190D01*
X179887619Y-81168571D01*
X179792380Y-80549523D02*
X179792380Y-80359047D01*
X179840000Y-80263809D01*
X179935238Y-80168571D01*
X180125714Y-80120952D01*
X180459047Y-80120952D01*
X180649523Y-80168571D01*
X180744761Y-80263809D01*
X180792380Y-80359047D01*
X180792380Y-80549523D01*
X180744761Y-80644761D01*
X180649523Y-80740000D01*
X180459047Y-80787619D01*
X180125714Y-80787619D01*
X179935238Y-80740000D01*
X179840000Y-80644761D01*
X179792380Y-80549523D01*
X180792380Y-79692380D02*
X179792380Y-79692380D01*
X180792380Y-79120952D01*
X179792380Y-79120952D01*
X179792380Y-78787619D02*
X179792380Y-78216190D01*
X180792380Y-78501904D02*
X179792380Y-78501904D01*
X180506666Y-77930476D02*
X180506666Y-77454285D01*
X180792380Y-78025714D02*
X179792380Y-77692380D01*
X180792380Y-77359047D01*
X180697142Y-76454285D02*
X180744761Y-76501904D01*
X180792380Y-76644761D01*
X180792380Y-76740000D01*
X180744761Y-76882857D01*
X180649523Y-76978095D01*
X180554285Y-77025714D01*
X180363809Y-77073333D01*
X180220952Y-77073333D01*
X180030476Y-77025714D01*
X179935238Y-76978095D01*
X179840000Y-76882857D01*
X179792380Y-76740000D01*
X179792380Y-76644761D01*
X179840000Y-76501904D01*
X179887619Y-76454285D01*
X179792380Y-76168571D02*
X179792380Y-75597142D01*
X180792380Y-75882857D02*
X179792380Y-75882857D01*
X180697142Y-72278571D02*
X180744761Y-72326190D01*
X180792380Y-72469047D01*
X180792380Y-72564285D01*
X180744761Y-72707142D01*
X180649523Y-72802380D01*
X180554285Y-72850000D01*
X180363809Y-72897619D01*
X180220952Y-72897619D01*
X180030476Y-72850000D01*
X179935238Y-72802380D01*
X179840000Y-72707142D01*
X179792380Y-72564285D01*
X179792380Y-72469047D01*
X179840000Y-72326190D01*
X179887619Y-72278571D01*
X179792380Y-71659523D02*
X179792380Y-71469047D01*
X179840000Y-71373809D01*
X179935238Y-71278571D01*
X180125714Y-71230952D01*
X180459047Y-71230952D01*
X180649523Y-71278571D01*
X180744761Y-71373809D01*
X180792380Y-71469047D01*
X180792380Y-71659523D01*
X180744761Y-71754761D01*
X180649523Y-71850000D01*
X180459047Y-71897619D01*
X180125714Y-71897619D01*
X179935238Y-71850000D01*
X179840000Y-71754761D01*
X179792380Y-71659523D01*
X180792380Y-70802380D02*
X179792380Y-70802380D01*
X180792380Y-70230952D01*
X179792380Y-70230952D01*
X179792380Y-69897619D02*
X179792380Y-69326190D01*
X180792380Y-69611904D02*
X179792380Y-69611904D01*
X180506666Y-69040476D02*
X180506666Y-68564285D01*
X180792380Y-69135714D02*
X179792380Y-68802380D01*
X180792380Y-68469047D01*
X180697142Y-67564285D02*
X180744761Y-67611904D01*
X180792380Y-67754761D01*
X180792380Y-67850000D01*
X180744761Y-67992857D01*
X180649523Y-68088095D01*
X180554285Y-68135714D01*
X180363809Y-68183333D01*
X180220952Y-68183333D01*
X180030476Y-68135714D01*
X179935238Y-68088095D01*
X179840000Y-67992857D01*
X179792380Y-67850000D01*
X179792380Y-67754761D01*
X179840000Y-67611904D01*
X179887619Y-67564285D01*
X179792380Y-67278571D02*
X179792380Y-66707142D01*
X180792380Y-66992857D02*
X179792380Y-66992857D01*
X157932380Y-59221666D02*
X157456190Y-59555000D01*
X157932380Y-59793095D02*
X156932380Y-59793095D01*
X156932380Y-59412142D01*
X156980000Y-59316904D01*
X157027619Y-59269285D01*
X157122857Y-59221666D01*
X157265714Y-59221666D01*
X157360952Y-59269285D01*
X157408571Y-59316904D01*
X157456190Y-59412142D01*
X157456190Y-59793095D01*
X157027619Y-58840714D02*
X156980000Y-58793095D01*
X156932380Y-58697857D01*
X156932380Y-58459761D01*
X156980000Y-58364523D01*
X157027619Y-58316904D01*
X157122857Y-58269285D01*
X157218095Y-58269285D01*
X157360952Y-58316904D01*
X157932380Y-58888333D01*
X157932380Y-58269285D01*
X156932380Y-56618095D02*
X156932380Y-57094286D01*
X157408571Y-57141905D01*
X157360952Y-57094286D01*
X157313333Y-56999048D01*
X157313333Y-56760952D01*
X157360952Y-56665714D01*
X157408571Y-56618095D01*
X157503809Y-56570476D01*
X157741904Y-56570476D01*
X157837142Y-56618095D01*
X157884761Y-56665714D01*
X157932380Y-56760952D01*
X157932380Y-56999048D01*
X157884761Y-57094286D01*
X157837142Y-57141905D01*
X156932380Y-55713333D02*
X156932380Y-55903810D01*
X156980000Y-55999048D01*
X157027619Y-56046667D01*
X157170476Y-56141905D01*
X157360952Y-56189524D01*
X157741904Y-56189524D01*
X157837142Y-56141905D01*
X157884761Y-56094286D01*
X157932380Y-55999048D01*
X157932380Y-55808571D01*
X157884761Y-55713333D01*
X157837142Y-55665714D01*
X157741904Y-55618095D01*
X157503809Y-55618095D01*
X157408571Y-55665714D01*
X157360952Y-55713333D01*
X157313333Y-55808571D01*
X157313333Y-55999048D01*
X157360952Y-56094286D01*
X157408571Y-56141905D01*
X157503809Y-56189524D01*
X156932380Y-54999048D02*
X156932380Y-54903810D01*
X156980000Y-54808571D01*
X157027619Y-54760952D01*
X157122857Y-54713333D01*
X157313333Y-54665714D01*
X157551428Y-54665714D01*
X157741904Y-54713333D01*
X157837142Y-54760952D01*
X157884761Y-54808571D01*
X157932380Y-54903810D01*
X157932380Y-54999048D01*
X157884761Y-55094286D01*
X157837142Y-55141905D01*
X157741904Y-55189524D01*
X157551428Y-55237143D01*
X157313333Y-55237143D01*
X157122857Y-55189524D01*
X157027619Y-55141905D01*
X156980000Y-55094286D01*
X156932380Y-54999048D01*
X166822380Y-81240238D02*
X166346190Y-81573571D01*
X166822380Y-81811666D02*
X165822380Y-81811666D01*
X165822380Y-81430714D01*
X165870000Y-81335476D01*
X165917619Y-81287857D01*
X166012857Y-81240238D01*
X166155714Y-81240238D01*
X166250952Y-81287857D01*
X166298571Y-81335476D01*
X166346190Y-81430714D01*
X166346190Y-81811666D01*
X165822380Y-80954523D02*
X166822380Y-80621190D01*
X165822380Y-80287857D01*
X166822380Y-79430714D02*
X166822380Y-80002142D01*
X166822380Y-79716428D02*
X165822380Y-79716428D01*
X165965238Y-79811666D01*
X166060476Y-79906904D01*
X166108095Y-80002142D01*
X172537380Y-80930714D02*
X172537380Y-81502142D01*
X172537380Y-81216428D02*
X171537380Y-81216428D01*
X171680238Y-81311666D01*
X171775476Y-81406904D01*
X171823095Y-81502142D01*
X172537380Y-80502142D02*
X171537380Y-80502142D01*
X172251666Y-80168809D01*
X171537380Y-79835476D01*
X172537380Y-79835476D01*
X179792380Y-65206190D02*
X179792380Y-64634761D01*
X180792380Y-64920476D02*
X179792380Y-64920476D01*
X180792380Y-63730000D02*
X180316190Y-64063333D01*
X180792380Y-64301428D02*
X179792380Y-64301428D01*
X179792380Y-63920476D01*
X179840000Y-63825238D01*
X179887619Y-63777619D01*
X179982857Y-63730000D01*
X180125714Y-63730000D01*
X180220952Y-63777619D01*
X180268571Y-63825238D01*
X180316190Y-63920476D01*
X180316190Y-64301428D01*
X180792380Y-63301428D02*
X179792380Y-63301428D01*
X179840000Y-62301428D02*
X179792380Y-62396666D01*
X179792380Y-62539523D01*
X179840000Y-62682380D01*
X179935238Y-62777619D01*
X180030476Y-62825238D01*
X180220952Y-62872857D01*
X180363809Y-62872857D01*
X180554285Y-62825238D01*
X180649523Y-62777619D01*
X180744761Y-62682380D01*
X180792380Y-62539523D01*
X180792380Y-62444285D01*
X180744761Y-62301428D01*
X180697142Y-62253809D01*
X180363809Y-62253809D01*
X180363809Y-62444285D01*
X179840000Y-61301428D02*
X179792380Y-61396666D01*
X179792380Y-61539523D01*
X179840000Y-61682380D01*
X179935238Y-61777619D01*
X180030476Y-61825238D01*
X180220952Y-61872857D01*
X180363809Y-61872857D01*
X180554285Y-61825238D01*
X180649523Y-61777619D01*
X180744761Y-61682380D01*
X180792380Y-61539523D01*
X180792380Y-61444285D01*
X180744761Y-61301428D01*
X180697142Y-61253809D01*
X180363809Y-61253809D01*
X180363809Y-61444285D01*
X180268571Y-60825238D02*
X180268571Y-60491904D01*
X180792380Y-60349047D02*
X180792380Y-60825238D01*
X179792380Y-60825238D01*
X179792380Y-60349047D01*
X180792380Y-59349047D02*
X180316190Y-59682380D01*
X180792380Y-59920476D02*
X179792380Y-59920476D01*
X179792380Y-59539523D01*
X179840000Y-59444285D01*
X179887619Y-59396666D01*
X179982857Y-59349047D01*
X180125714Y-59349047D01*
X180220952Y-59396666D01*
X180268571Y-59444285D01*
X180316190Y-59539523D01*
X180316190Y-59920476D01*
X156932380Y-71834047D02*
X156932380Y-71262619D01*
X157932380Y-71548333D02*
X156932380Y-71548333D01*
X157932380Y-70453095D02*
X157932380Y-70929285D01*
X156932380Y-70929285D01*
X157837142Y-69548333D02*
X157884761Y-69595952D01*
X157932380Y-69738809D01*
X157932380Y-69834047D01*
X157884761Y-69976904D01*
X157789523Y-70072142D01*
X157694285Y-70119761D01*
X157503809Y-70167380D01*
X157360952Y-70167380D01*
X157170476Y-70119761D01*
X157075238Y-70072142D01*
X156980000Y-69976904D01*
X156932380Y-69834047D01*
X156932380Y-69738809D01*
X156980000Y-69595952D01*
X157027619Y-69548333D01*
X156932380Y-68643571D02*
X156932380Y-69119761D01*
X157408571Y-69167380D01*
X157360952Y-69119761D01*
X157313333Y-69024523D01*
X157313333Y-68786428D01*
X157360952Y-68691190D01*
X157408571Y-68643571D01*
X157503809Y-68595952D01*
X157741904Y-68595952D01*
X157837142Y-68643571D01*
X157884761Y-68691190D01*
X157932380Y-68786428D01*
X157932380Y-69024523D01*
X157884761Y-69119761D01*
X157837142Y-69167380D01*
X156932380Y-67691190D02*
X156932380Y-68167380D01*
X157408571Y-68215000D01*
X157360952Y-68167380D01*
X157313333Y-68072142D01*
X157313333Y-67834047D01*
X157360952Y-67738809D01*
X157408571Y-67691190D01*
X157503809Y-67643571D01*
X157741904Y-67643571D01*
X157837142Y-67691190D01*
X157884761Y-67738809D01*
X157932380Y-67834047D01*
X157932380Y-68072142D01*
X157884761Y-68167380D01*
X157837142Y-68215000D01*
X156932380Y-66738809D02*
X156932380Y-67215000D01*
X157408571Y-67262619D01*
X157360952Y-67215000D01*
X157313333Y-67119761D01*
X157313333Y-66881666D01*
X157360952Y-66786428D01*
X157408571Y-66738809D01*
X157503809Y-66691190D01*
X157741904Y-66691190D01*
X157837142Y-66738809D01*
X157884761Y-66786428D01*
X157932380Y-66881666D01*
X157932380Y-67119761D01*
X157884761Y-67215000D01*
X157837142Y-67262619D01*
X152931904Y-78557380D02*
X152931904Y-77557380D01*
X153170000Y-77557380D01*
X153312857Y-77605000D01*
X153408095Y-77700238D01*
X153455714Y-77795476D01*
X153503333Y-77985952D01*
X153503333Y-78128809D01*
X153455714Y-78319285D01*
X153408095Y-78414523D01*
X153312857Y-78509761D01*
X153170000Y-78557380D01*
X152931904Y-78557380D01*
X153884285Y-77652619D02*
X153931904Y-77605000D01*
X154027142Y-77557380D01*
X154265238Y-77557380D01*
X154360476Y-77605000D01*
X154408095Y-77652619D01*
X154455714Y-77747857D01*
X154455714Y-77843095D01*
X154408095Y-77985952D01*
X153836666Y-78557380D01*
X154455714Y-78557380D01*
X154702142Y-76652380D02*
X154130714Y-76652380D01*
X154416428Y-76652380D02*
X154416428Y-75652380D01*
X154321190Y-75795238D01*
X154225952Y-75890476D01*
X154130714Y-75938095D01*
X155130714Y-76652380D02*
X155130714Y-75652380D01*
X155702142Y-76652380D01*
X155702142Y-75652380D01*
X156606904Y-75985714D02*
X156606904Y-76652380D01*
X156368809Y-75604761D02*
X156130714Y-76319047D01*
X156749761Y-76319047D01*
X157654523Y-76652380D02*
X157083095Y-76652380D01*
X157368809Y-76652380D02*
X157368809Y-75652380D01*
X157273571Y-75795238D01*
X157178333Y-75890476D01*
X157083095Y-75938095D01*
X158511666Y-75985714D02*
X158511666Y-76652380D01*
X158273571Y-75604761D02*
X158035476Y-76319047D01*
X158654523Y-76319047D01*
X159178333Y-76080952D02*
X159083095Y-76033333D01*
X159035476Y-75985714D01*
X158987857Y-75890476D01*
X158987857Y-75842857D01*
X159035476Y-75747619D01*
X159083095Y-75700000D01*
X159178333Y-75652380D01*
X159368809Y-75652380D01*
X159464047Y-75700000D01*
X159511666Y-75747619D01*
X159559285Y-75842857D01*
X159559285Y-75890476D01*
X159511666Y-75985714D01*
X159464047Y-76033333D01*
X159368809Y-76080952D01*
X159178333Y-76080952D01*
X159083095Y-76128571D01*
X159035476Y-76176190D01*
X158987857Y-76271428D01*
X158987857Y-76461904D01*
X159035476Y-76557142D01*
X159083095Y-76604761D01*
X159178333Y-76652380D01*
X159368809Y-76652380D01*
X159464047Y-76604761D01*
X159511666Y-76557142D01*
X159559285Y-76461904D01*
X159559285Y-76271428D01*
X159511666Y-76176190D01*
X159464047Y-76128571D01*
X159368809Y-76080952D01*
X161742380Y-59221666D02*
X161266190Y-59555000D01*
X161742380Y-59793095D02*
X160742380Y-59793095D01*
X160742380Y-59412142D01*
X160790000Y-59316904D01*
X160837619Y-59269285D01*
X160932857Y-59221666D01*
X161075714Y-59221666D01*
X161170952Y-59269285D01*
X161218571Y-59316904D01*
X161266190Y-59412142D01*
X161266190Y-59793095D01*
X161742380Y-58269285D02*
X161742380Y-58840714D01*
X161742380Y-58555000D02*
X160742380Y-58555000D01*
X160885238Y-58650238D01*
X160980476Y-58745476D01*
X161028095Y-58840714D01*
X161742380Y-56570476D02*
X161742380Y-57141904D01*
X161742380Y-56856190D02*
X160742380Y-56856190D01*
X160885238Y-56951428D01*
X160980476Y-57046666D01*
X161028095Y-57141904D01*
X160742380Y-55951428D02*
X160742380Y-55856190D01*
X160790000Y-55760952D01*
X160837619Y-55713333D01*
X160932857Y-55665714D01*
X161123333Y-55618095D01*
X161361428Y-55618095D01*
X161551904Y-55665714D01*
X161647142Y-55713333D01*
X161694761Y-55760952D01*
X161742380Y-55856190D01*
X161742380Y-55951428D01*
X161694761Y-56046666D01*
X161647142Y-56094285D01*
X161551904Y-56141904D01*
X161361428Y-56189523D01*
X161123333Y-56189523D01*
X160932857Y-56141904D01*
X160837619Y-56094285D01*
X160790000Y-56046666D01*
X160742380Y-55951428D01*
X161742380Y-55189523D02*
X160742380Y-55189523D01*
X161742380Y-54618095D02*
X161170952Y-55046666D01*
X160742380Y-54618095D02*
X161313809Y-55189523D01*
M02*
