M48
;DRILL file {KiCad (2017-10-17 revision 537804b)-master} date 2017 December 28, Thursday 11:37:38
;FORMAT={3:3/ absolute / metric / suppress leading zeros}
FMAT,2
METRIC,TZ
T1C0.700
T2C0.800
T3C0.900
T4C1.000
T5C1.199
T6C1.300
%
G90
G05
M71
T1
X165100Y-54610
X165100Y-62230
X165100Y-67300
X165100Y-72390
X172720Y-54610
X172720Y-62230
X172730Y-67320
X172730Y-72400
T2
X153670Y-58420
X153670Y-60920
X157480Y-81915
X159980Y-81915
X157480Y-53340
X157480Y-60960
X153670Y-64770
X153670Y-67310
X153670Y-69850
X153670Y-72390
X161290Y-64770
X161290Y-67310
X161290Y-69850
X161290Y-72390
X161290Y-53340
X161290Y-60960
T3
X153670Y-76200
X161290Y-76200
X177800Y-54610
X177800Y-57150
T4
X177800Y-76200
X177800Y-78740
X177800Y-81280
X177800Y-60960
X177800Y-63500
X177800Y-67310
X177800Y-69850
X177800Y-72390
T5
X163830Y-50800
X168910Y-50800
T6
X163990Y-80605
X173990Y-78105
X173990Y-83105
T0
M30
